<svg xmlns="http://www.w3.org/2000/svg" xmlns:xlink="http://www.w3.org/1999/xlink" version="1.1" width="1000" height="1000" viewBox="0 0 1000 1000" xml:space="preserve">
<desc>Created with Fabric.js 3.5.0</desc>
<defs>
</defs>
<rect x="0" y="0" width="100%" height="100%" fill="rgba(255,255,255,0)"/>
<g transform="matrix(0.9789 0 0 0.9789 110.0367 361.102)" id="66923">
<g style="" vector-effect="non-scaling-stroke">
		<g transform="matrix(1 0 0 1 5.9425 47.582)">
<path style="stroke: none; stroke-width: 1; stroke-dasharray: none; stroke-linecap: butt; stroke-dashoffset: 0; stroke-linejoin: miter; stroke-miterlimit: 4; is-custom-font: none; font-file-url: none; fill: rgb(81,108,130); fill-rule: nonzero; opacity: 1;" transform=" translate(-53.4426, -104.582)" d="M 63.0958 112.342 C 42.001 115.94 19.3047 108.587 19.9304 104.573 C 20.9062 98.33 79.4011 92.3872 86.2167 98.2823 C 90.0528 101.601 78.7084 109.684 63.0958 112.342 Z" stroke-linecap="round"/>
</g>
		<g transform="matrix(1 0 0 1 -0.8472 -13.9241)">
<path style="stroke: none; stroke-width: 1; stroke-dasharray: none; stroke-linecap: butt; stroke-dashoffset: 0; stroke-linejoin: miter; stroke-miterlimit: 4; is-custom-font: none; font-file-url: none; fill: rgb(77,101,150); fill-rule: nonzero; opacity: 1;" transform=" translate(-46.6528, -43.076)" d="M 86.7531 13.1609 L 27.5504 9.54883 L 6.55247 64.4858 L 81.3453 76.6031 L 86.7531 13.1609 Z" stroke-linecap="round"/>
</g>
		<g transform="matrix(1 0 0 1 13.6966 -27.7503)">
<path style="stroke: none; stroke-width: 1; stroke-dasharray: none; stroke-linecap: butt; stroke-dashoffset: 0; stroke-linejoin: miter; stroke-miterlimit: 4; is-custom-font: none; font-file-url: none; fill: rgb(231,242,253); fill-rule: nonzero; opacity: 1;" transform=" translate(-61.1966, -29.2497)" d="M 70.2169 24.9919 C 68.8314 23.6425 67.1256 23.2064 65.0028 23.3359 C 63.2747 23.4449 61.04 24.2491 59.6545 25.2918 C 55.6099 28.345 54.1574 33.4087 52.8017 37.8249 C 52.0271 40.3533 47.7142 39.2765 48.4889 36.7344 C 50.1872 31.2142 52.2207 25.1691 57.5391 21.6525 C 62.1201 18.6198 69.2634 18.0882 73.3751 22.0955 C 75.3416 24.0106 72.1908 26.907 70.2169 24.9851 V 24.9919 Z" stroke-linecap="round"/>
</g>
		<g transform="matrix(1 0 0 1 14.2471 -24.5577)">
<path style="stroke: none; stroke-width: 1; stroke-dasharray: none; stroke-linecap: butt; stroke-dashoffset: 0; stroke-linejoin: miter; stroke-miterlimit: 4; is-custom-font: none; font-file-url: none; fill: rgb(231,242,253); fill-rule: nonzero; opacity: 1;" transform=" translate(-61.7471, -32.4423)" d="M 63.3492 32.7957 C 63.3492 32.7957 63.3492 32.8093 63.3492 32.8161 L 63.4311 32.2709 C 63.4311 32.2709 63.4311 32.3323 63.4311 32.3663 L 63.3492 31.8211 C 63.3492 31.8211 63.3641 31.8756 63.3715 31.9029 L 63.1481 31.4122 C 63.1481 31.4122 63.1704 31.4531 63.1928 31.4735 L 62.8427 31.0578 C 62.8427 31.0578 62.8873 31.0987 62.9097 31.1192 L 62.4553 30.7988 C 62.4553 30.7988 62.5224 30.8397 62.5671 30.8534 L 62.0308 30.6489 C 62.0904 30.6694 62.15 30.683 62.2096 30.6898 L 61.6137 30.6148 C 61.6882 30.6217 61.7701 30.6217 61.8446 30.6148 L 61.2487 30.6898 C 61.3158 30.683 61.3828 30.6625 61.4498 30.6421 L 60.9136 30.8466 C 60.9583 30.8329 60.9955 30.8125 61.0328 30.7852 L 60.5784 31.1055 C 60.5784 31.1055 60.6306 31.0646 60.6529 31.0374 L 60.3028 31.4531 C 60.3028 31.4531 60.3326 31.4122 60.3475 31.3918 L 60.124 31.8825 C 60.124 31.8825 60.1464 31.8279 60.1464 31.8007 L 60.0645 32.3459 C 60.0645 32.3459 60.0645 32.2914 60.0645 32.2641 L 60.1464 32.8093 C 60.1464 32.8093 60.1464 32.7752 60.1389 32.7616 C 60.0421 32.489 60.0347 32.2164 60.1017 31.9438 C 60.1166 31.6712 60.206 31.419 60.3699 31.1805 C 60.5114 30.942 60.7051 30.7511 60.9434 30.608 C 61.1594 30.424 61.4126 30.3082 61.7031 30.24 L 62.299 30.165 C 62.7012 30.165 63.081 30.2604 63.4237 30.4445 L 63.878 30.7648 C 64.1536 31.0169 64.3473 31.3236 64.4515 31.6644 C 64.4515 31.678 64.4515 31.6984 64.459 31.7121 C 64.4813 31.8347 64.526 32.1414 64.5409 32.2641 C 64.5409 32.2709 64.5409 32.2777 64.5409 32.2846 C 64.5484 32.489 64.4962 32.7003 64.4515 32.9047 C 64.4143 33.0887 64.2355 33.3954 64.2057 33.4568 C 64.1163 33.6271 63.8854 33.8589 63.8184 33.9338 C 63.8035 33.9543 63.7886 33.9679 63.7663 33.9815 C 63.7663 33.9815 63.7514 33.9883 63.7514 33.9952 C 63.6471 34.0769 63.4088 34.2405 63.2896 34.3223 C 63.2747 34.3291 63.2598 34.3427 63.2449 34.3495 C 63.0364 34.4722 62.7905 34.554 62.5522 34.6153 C 62.5224 34.6221 62.4926 34.629 62.4628 34.6358 C 62.2394 34.6699 62.0085 34.7039 61.7776 34.7176 C 61.5318 34.7312 61.1966 34.6699 61.003 34.6358 C 60.7646 34.6017 60.489 34.4654 60.3028 34.3904 C 60.273 34.3768 60.2506 34.37 60.2283 34.3564 C 60.0495 34.2473 59.8708 34.1315 59.7144 33.9952 C 59.3718 33.7021 59.2005 33.3613 59.0515 32.9661 C 58.977 32.7684 58.9696 32.5367 58.9547 32.3459 C 58.9398 32.1346 59.0068 31.9097 59.0366 31.7053 C 59.1036 31.4395 59.2377 31.2078 59.4388 31.0101 C 59.5952 30.7852 59.8038 30.6148 60.0645 30.4854 C 60.3177 30.3354 60.6007 30.2536 60.8987 30.24 C 61.1966 30.1787 61.4945 30.1923 61.7924 30.2741 L 62.3288 30.4785 C 62.664 30.6625 62.9321 30.9079 63.1332 31.2146 L 63.3566 31.7053 C 63.4609 32.0665 63.4609 32.4277 63.3566 32.7957 H 63.3492 Z" stroke-linecap="round"/>
</g>
		<g transform="matrix(1 0 0 1 -9.8847 -29.9534)">
<path style="stroke: none; stroke-width: 1; stroke-dasharray: none; stroke-linecap: butt; stroke-dashoffset: 0; stroke-linejoin: miter; stroke-miterlimit: 4; is-custom-font: none; font-file-url: none; fill: rgb(231,242,253); fill-rule: nonzero; opacity: 1;" transform=" translate(-37.6153, -27.0467)" d="M 48.8612 21.414 C 39.9078 21.6116 31.3417 27.4454 28.6453 35.3442 C 27.7887 37.8453 23.4759 36.7822 24.3325 34.2537 C 27.6323 24.6035 37.7998 17.5702 48.8537 17.3249 C 51.7289 17.2636 51.7289 21.3527 48.8537 21.414 H 48.8612 Z" stroke-linecap="round"/>
</g>
		<g transform="matrix(1 0 0 1 -6.9848 -26.4468)">
<path style="stroke: none; stroke-width: 1; stroke-dasharray: none; stroke-linecap: butt; stroke-dashoffset: 0; stroke-linejoin: miter; stroke-miterlimit: 4; is-custom-font: none; font-file-url: none; fill: rgb(231,242,253); fill-rule: nonzero; opacity: 1;" transform=" translate(-40.5152, -30.5532)" d="M 39.5284 31.8413 C 39.7071 31.9095 39.8859 31.9776 40.0646 32.0458 C 40.0274 32.0321 39.9827 32.0185 39.9454 32.0117 L 40.5413 32.0866 C 40.5413 32.0866 40.4891 32.0866 40.4668 32.0866 L 41.0627 32.0117 C 41.0627 32.0117 41.0255 32.0185 41.0031 32.0253 L 41.5394 31.8209 C 41.5394 31.8209 41.5021 31.8345 41.4872 31.8481 L 41.9416 31.5278 C 41.9416 31.5278 41.9043 31.5551 41.8894 31.5755 L 42.2395 31.1598 C 42.2395 31.1598 42.2023 31.2075 42.1948 31.2348 L 42.4182 30.7441 C 42.3959 30.7918 42.381 30.8395 42.3736 30.8872 L 42.4555 30.342 C 42.4481 30.4238 42.4481 30.4987 42.4555 30.5805 L 42.3736 30.0353 C 42.3885 30.1171 42.4108 30.192 42.4406 30.267 L 42.2172 29.7763 C 42.2395 29.824 42.2619 29.8717 42.2991 29.9126 L 41.9491 29.4969 C 41.9491 29.4969 41.9937 29.5446 42.0161 29.565 L 41.5617 29.2447 C 41.5617 29.2447 41.5989 29.272 41.6213 29.2788 L 41.085 29.0744 C 41.085 29.0744 41.1222 29.088 41.1446 29.088 L 40.5488 29.013 C 40.5488 29.013 40.5934 29.013 40.6083 29.013 L 40.0124 29.088 C 40.0124 29.088 40.0646 29.0812 40.087 29.0675 L 39.5506 29.272 C 39.5506 29.272 39.6177 29.2379 39.6475 29.2175 L 39.1931 29.5378 C 39.1931 29.5378 39.208 29.5242 39.2155 29.5173 C 39.4166 29.3197 39.6549 29.1766 39.938 29.0948 C 40.2061 28.9653 40.4892 28.9108 40.802 28.9176 C 41.1074 28.904 41.3979 28.9653 41.666 29.0948 C 41.9416 29.1766 42.1799 29.3197 42.3885 29.5173 L 42.7385 29.9331 C 42.9396 30.2534 43.0439 30.5941 43.0439 30.9621 L 42.962 31.5074 C 42.8577 31.8549 42.6641 32.1548 42.3885 32.407 C 42.381 32.407 42.3736 32.4206 42.3661 32.4274 C 42.2172 32.5364 42.0533 32.6591 41.8969 32.7613 C 41.882 32.7682 41.8671 32.7818 41.8522 32.7886 C 41.8448 32.7886 41.8373 32.7954 41.8299 32.8022 C 41.7405 32.8431 41.5096 32.9249 41.5543 32.9045 C 41.5766 32.8977 41.3681 32.9794 41.2787 33.0135 C 41.2638 33.0135 41.2489 33.0203 41.234 33.0271 C 41.1371 33.0476 40.9435 33.0612 40.9212 33.068 C 40.9137 33.068 40.7126 33.1021 40.6083 33.1089 C 40.5934 33.1089 40.5785 33.1089 40.5636 33.1089 C 40.3923 33.1021 40.1391 33.0817 39.938 33.0271 C 39.938 33.0271 39.923 33.0271 39.9156 33.0271 C 39.9156 33.0271 39.9156 33.0271 39.9081 33.0271 C 39.8411 33.0067 39.4315 32.8499 39.3719 32.8159 C 39.1857 32.7341 38.9474 32.5296 38.8505 32.4615 C 38.8282 32.441 38.8058 32.4274 38.7909 32.407 C 38.6941 32.2979 38.5005 32.0935 38.3962 31.9299 C 38.3888 31.9163 38.3813 31.9026 38.3738 31.889 C 38.3738 31.8822 38.3738 31.8754 38.3664 31.8686 C 38.2844 31.705 38.2025 31.5278 38.1354 31.3574 C 38.1056 31.2961 38.0908 31.2348 38.0759 31.1666 C 38.0386 30.9553 38.0014 30.7441 37.9865 30.526 C 37.9865 30.4919 37.9865 30.4578 37.9865 30.4306 C 37.994 30.2193 38.0386 30.0012 38.0759 29.7968 C 38.0759 29.7695 38.0908 29.7422 38.0982 29.7082 C 38.0982 29.6945 38.1057 29.6809 38.1132 29.6673 C 38.1727 29.531 38.277 29.2993 38.344 29.1698 C 38.344 29.163 38.344 29.1561 38.3515 29.1493 C 38.3515 29.1357 38.3664 29.1289 38.3738 29.1152 C 38.426 29.0403 38.5377 28.9176 38.56 28.8972 C 38.5973 28.8563 38.6792 28.7472 38.7463 28.6723 C 38.7537 28.6654 38.7686 28.6518 38.7761 28.645 C 38.8431 28.5905 39.1261 28.3997 39.0069 28.4814 C 38.9771 28.5019 39.1634 28.3656 39.2379 28.3179 C 39.2379 28.3179 39.2527 28.3111 39.2601 28.3042 C 39.4538 28.2088 39.655 28.1134 39.871 28.0725 C 39.9305 28.0589 40.4072 28.0044 40.4668 27.9976 C 40.4668 27.9976 40.4742 27.9976 40.4817 27.9976 C 40.4891 27.9976 40.4966 27.9976 40.504 27.9976 C 40.72 27.9976 40.936 28.0384 41.1446 28.0725 C 41.1669 28.0725 41.1819 28.0793 41.2042 28.0862 C 41.4053 28.1407 41.6138 28.2361 41.8 28.3111 C 42.0607 28.4405 42.2693 28.6177 42.4257 28.8358 C 42.6268 29.0335 42.7534 29.2652 42.8279 29.531 C 42.9247 29.8036 42.9322 30.0762 42.8652 30.3488 C 42.8503 30.6214 42.7609 30.8736 42.5971 31.1121 L 42.2469 31.5278 C 41.9713 31.78 41.6362 31.9572 41.2638 32.0526 L 40.6679 32.1275 C 40.2657 32.1275 39.8858 32.0321 39.5432 31.8481 L 39.5284 31.8413 Z" stroke-linecap="round"/>
</g>
		<g transform="matrix(1 0 0 1 8.0913 -51.8278)">
<path style="stroke: none; stroke-width: 1; stroke-dasharray: none; stroke-linecap: butt; stroke-dashoffset: 0; stroke-linejoin: miter; stroke-miterlimit: 4; is-custom-font: none; font-file-url: none; fill: rgb(231,242,253); fill-rule: nonzero; opacity: 1;" transform=" translate(-55.5913, -5.1722)" d="M 81.1367 7.96115 C 67.8929 8.53363 54.6117 8.30872 41.3977 7.27282 C 37.6063 6.97296 33.8223 6.60494 30.0458 6.17559 C 28.8465 6.03928 27.8112 5.33051 27.8112 4.13104 C 27.8112 3.12921 28.8391 1.95019 30.0458 2.08649 C 43.2003 3.57901 56.4665 4.28779 69.7252 4.17193 C 73.5315 4.13786 77.3379 4.03563 81.1367 3.87206 C 82.3434 3.81754 83.3713 4.84663 83.3713 5.91661 C 83.3713 7.06837 82.3434 7.90663 81.1367 7.96115 Z" stroke-linecap="round"/>
</g>
		<g transform="matrix(1 0 0 1 -23.2205 -37.6089)">
<path style="stroke: none; stroke-width: 1; stroke-dasharray: none; stroke-linecap: butt; stroke-dashoffset: 0; stroke-linejoin: miter; stroke-miterlimit: 4; is-custom-font: none; font-file-url: none; fill: rgb(231,242,253); fill-rule: nonzero; opacity: 1;" transform=" translate(-24.2795, -19.3912)" d="M 35.4088 3.42918 C 30.9694 15.2603 24.8688 26.553 17.2264 36.9325 C 16.556 37.8457 15.26 38.2478 14.1724 37.6685 C 13.1818 37.1369 12.6901 35.7943 13.3679 34.8743 C 20.7943 24.7879 26.7831 13.8495 31.096 2.34557 C 31.4907 1.30285 32.6304 0.614522 33.8446 0.914388 C 34.9545 1.19381 35.7961 2.37965 35.4088 3.42918 Z" stroke-linecap="round"/>
</g>
		<g transform="matrix(1 0 0 1 -13.1187 -9.411)">
<path style="stroke: none; stroke-width: 1; stroke-dasharray: none; stroke-linecap: butt; stroke-dashoffset: 0; stroke-linejoin: miter; stroke-miterlimit: 4; is-custom-font: none; font-file-url: none; fill: rgb(231,242,253); fill-rule: nonzero; opacity: 1;" transform=" translate(-34.3813, -47.5891)" d="M 43.7664 49.3701 C 37.8968 52.9889 29.2191 51.9666 24.5338 47.1211 C 23.7368 46.2964 23.64 45.0425 24.5338 44.2315 C 25.3457 43.4886 26.8876 43.4 27.6921 44.2315 C 28.7125 45.2878 29.3755 45.7649 30.746 46.4055 C 30.9099 46.4805 31.0812 46.5554 31.245 46.6304 C 31.5802 46.7735 30.9844 46.5418 31.327 46.6645 C 31.6697 46.7871 32.0272 46.903 32.3847 46.9984 C 32.705 47.087 33.0328 47.1688 33.3605 47.2301 C 33.5468 47.2642 33.7255 47.2983 33.9117 47.3324 C 33.9788 47.346 34.4704 47.4073 34.098 47.3664 C 34.7683 47.4414 35.4387 47.4687 36.1165 47.4482 C 36.489 47.4346 36.8614 47.4141 37.2338 47.3732 C 36.988 47.4005 37.1593 47.3869 37.3009 47.3596 C 37.4871 47.3255 37.6659 47.2983 37.8521 47.2642 C 38.5374 47.1279 39.2227 46.9439 39.8782 46.6985 C 39.5951 46.8076 39.9527 46.6576 40.0569 46.6168 C 40.2208 46.5418 40.3921 46.4668 40.556 46.385 C 40.8837 46.2215 41.204 46.0375 41.5094 45.8466 C 42.5075 45.2265 43.9824 45.6694 44.5634 46.5827 C 45.204 47.5913 44.7645 48.7635 43.7589 49.3769 L 43.7664 49.3701 Z" stroke-linecap="round"/>
</g>
		<g transform="matrix(1 0 0 1 30.0319 -18.6742)">
<path style="stroke: none; stroke-width: 1; stroke-dasharray: none; stroke-linecap: butt; stroke-dashoffset: 0; stroke-linejoin: miter; stroke-miterlimit: 4; is-custom-font: none; font-file-url: none; fill: rgb(231,242,253); fill-rule: nonzero; opacity: 1;" transform=" translate(-77.5319, -38.3258)" d="M 85.6208 10.5915 C 82.5297 25.3123 79.4461 40.0398 76.3551 54.7605 C 75.4911 58.8905 74.6271 63.0137 73.7556 67.1437 C 73.5247 68.2273 72.1021 68.8474 71.0072 68.5748 C 69.7633 68.2613 69.2196 67.1505 69.443 66.0601 C 72.5341 51.3393 75.6177 36.6118 78.7087 21.8911 C 79.5727 17.7611 80.4368 13.6379 81.3082 9.50793 C 81.5391 8.42432 82.9617 7.80414 84.0566 8.07674 C 85.3005 8.39024 85.8442 9.50111 85.6208 10.5915 Z" stroke-linecap="round"/>
</g>
		<g transform="matrix(1 0 0 1 -0.0664 14.9381)">
<path style="stroke: none; stroke-width: 1; stroke-dasharray: none; stroke-linecap: butt; stroke-dashoffset: 0; stroke-linejoin: miter; stroke-miterlimit: 4; is-custom-font: none; font-file-url: none; fill: rgb(231,242,253); fill-rule: nonzero; opacity: 1;" transform=" translate(-47.4337, -71.938)" d="M 69.0101 71.2122 C 54.634 71.3622 40.3474 73.2023 26.4778 76.678 C 23.6995 77.3731 22.515 73.434 25.286 72.732 C 39.5131 69.1609 54.2467 67.2731 69.0026 67.1163 C 71.8779 67.0891 71.8779 71.1782 69.0026 71.2054 L 69.0101 71.2122 Z" stroke-linecap="round"/>
</g>
		<g transform="matrix(1 0 0 1 6.0091 30.4845)">
<path style="stroke: none; stroke-width: 1; stroke-dasharray: none; stroke-linecap: butt; stroke-dashoffset: 0; stroke-linejoin: miter; stroke-miterlimit: 4; is-custom-font: none; font-file-url: none; fill: rgb(231,242,253); fill-rule: nonzero; opacity: 1;" transform=" translate(-53.5092, -87.4845)" d="M 54.0904 69.6721 C 57.2113 81.1011 58.0902 93.014 56.608 104.716 C 56.4665 105.813 55.6844 106.76 54.3735 106.76 C 53.2711 106.76 51.9975 105.82 52.139 104.716 C 53.584 93.3616 52.8093 81.8508 49.7853 70.7557 C 49.0852 68.2 53.3978 67.1096 54.0979 69.6653 L 54.0904 69.6721 Z" stroke-linecap="round"/>
</g>
		<g transform="matrix(1 0 0 1 -8.4263 30.519)">
<path style="stroke: none; stroke-width: 1; stroke-dasharray: none; stroke-linecap: butt; stroke-dashoffset: 0; stroke-linejoin: miter; stroke-miterlimit: 4; is-custom-font: none; font-file-url: none; fill: rgb(231,242,253); fill-rule: nonzero; opacity: 1;" transform=" translate(-39.0737, -87.5191)" d="M 40.1315 72.2421 C 42.366 82.1036 42.9619 92.2378 41.785 102.249 C 41.6584 103.346 40.8465 104.294 39.5505 104.294 C 38.4407 104.294 37.1894 103.353 37.316 102.249 C 38.4482 92.599 37.9789 82.8329 35.8264 73.3257 C 35.5806 72.2489 36.169 71.1176 37.3905 70.8109 C 38.5003 70.5315 39.8932 71.1517 40.139 72.2421 H 40.1315 Z" stroke-linecap="round"/>
</g>
		<g transform="matrix(1 0 0 1 -37.4481 -40.7482)">
<path style="stroke: none; stroke-width: 1; stroke-dasharray: none; stroke-linecap: butt; stroke-dashoffset: 0; stroke-linejoin: miter; stroke-miterlimit: 4; is-custom-font: none; font-file-url: none; fill: rgb(231,242,253); fill-rule: nonzero; opacity: 1;" transform=" translate(-10.0519, -16.2519)" d="M 14.8279 27.7936 C 13.3159 19.5268 8.63088 12.0506 1.57732 6.69392 C 0.646278 5.98514 0.780348 4.53352 1.57732 3.8043 C 2.49346 2.96603 3.80436 3.09552 4.7354 3.8043 C 12.2954 9.54265 17.5168 17.8435 19.1331 26.7032 C 19.3342 27.7936 18.8202 28.9045 17.5688 29.218 C 16.4963 29.4838 15.0216 28.8841 14.8205 27.7868 L 14.8279 27.7936 Z" stroke-linecap="round"/>
</g>
		<g transform="matrix(1 0 0 1 37.8523 6.4141)">
<path style="stroke: none; stroke-width: 1; stroke-dasharray: none; stroke-linecap: butt; stroke-dashoffset: 0; stroke-linejoin: miter; stroke-miterlimit: 4; is-custom-font: none; font-file-url: none; fill: rgb(231,242,253); fill-rule: nonzero; opacity: 1;" transform=" translate(-85.3522, -63.4141)" d="M 80.8767 38.2682 C 88.2803 49.8335 92.6748 62.9118 93.7623 76.2763 C 94.0676 80.011 94.0974 83.7525 93.8591 87.494 C 93.7921 88.5981 92.8834 89.5386 91.6246 89.5386 C 90.4701 89.5386 89.3231 88.6049 89.3901 87.494 C 90.1945 74.702 87.7813 61.7941 82.3291 49.9834 C 80.7948 46.6644 78.9997 43.4477 77.011 40.34 C 75.5511 38.0637 79.4168 36.0056 80.8692 38.275 L 80.8767 38.2682 Z" stroke-linecap="round"/>
</g>
</g>
</g>
<g transform="matrix(0.9877 0 0 0.9877 278.3379 313.575)" id="427023">
<g style="" vector-effect="non-scaling-stroke">
		<g transform="matrix(1 0 0 1 -15.081 65.8343)">
<path style="stroke: none; stroke-width: 1; stroke-dasharray: none; stroke-linecap: butt; stroke-dashoffset: 0; stroke-linejoin: miter; stroke-miterlimit: 4; is-custom-font: none; font-file-url: none; fill: rgb(81,108,130); fill-rule: nonzero; opacity: 1;" transform=" translate(-59.419, -146.8344)" d="M 39.3105 160.23 C 63.3767 164.132 85.341 157.689 107.508 151.177 C 115.785 148.748 116.601 147.882 116.659 147.191 C 117.309 139.22 19.0724 126.028 4.38134 135.605 C -4.12705 141.154 12.9258 155.944 39.3105 160.223 V 160.23 Z" stroke-linecap="round"/>
</g>
		<g transform="matrix(1 0 0 1 -11.647 -2.1838)">
<path style="stroke: none; stroke-width: 1; stroke-dasharray: none; stroke-linecap: butt; stroke-dashoffset: 0; stroke-linejoin: miter; stroke-miterlimit: 4; is-custom-font: none; font-file-url: none; fill: rgb(59,110,155); fill-rule: nonzero; opacity: 1;" transform=" translate(-62.853, -78.8161)" d="M 25.219 52.09 L 90.3392 33.2373 L 100.487 109.898 L 32.9328 124.395 L 25.219 52.09 Z" stroke-linecap="round"/>
</g>
		<g transform="matrix(1 0 0 1 -34.8475 -3.7983)">
<path style="stroke: none; stroke-width: 1; stroke-dasharray: none; stroke-linecap: butt; stroke-dashoffset: 0; stroke-linejoin: miter; stroke-miterlimit: 4; is-custom-font: none; font-file-url: none; fill: rgb(231,242,253); fill-rule: nonzero; opacity: 1;" transform=" translate(-39.6526, -77.2017)" d="M 32.1745 43.1211 C 32.3262 61.234 34.5435 79.3468 38.7757 96.992 C 39.9747 101.983 41.3325 106.938 42.8492 111.845 C 43.6436 114.421 47.8253 113.325 47.0308 110.728 C 41.7441 93.6138 38.3929 75.9546 37.1073 58.1349 C 36.7462 53.1373 36.5513 48.1257 36.5079 43.1141 C 36.4863 40.4199 32.1529 40.4129 32.1745 43.1141 V 43.1211 Z" stroke-linecap="round"/>
</g>
		<g transform="matrix(1 0 0 1 -18.8212 -18.8327)">
<path style="stroke: none; stroke-width: 1; stroke-dasharray: none; stroke-linecap: butt; stroke-dashoffset: 0; stroke-linejoin: miter; stroke-miterlimit: 4; is-custom-font: none; font-file-url: none; fill: rgb(231,242,253); fill-rule: nonzero; opacity: 1;" transform=" translate(-55.6788, -62.1672)" d="M 48.2162 73.7418 C 47.6817 68.2207 48.3896 62.7065 50.3758 57.5065 C 50.802 56.3897 51.2643 55.238 51.9649 54.2469 C 52.5571 53.4093 53.2866 52.9556 54.1533 52.7602 C 55.7929 52.3903 57.9236 53.1511 59.3031 54.4144 C 61.3905 56.3269 62.5317 59.0072 63.6512 61.513 C 64.1135 62.553 65.6952 62.7833 66.6125 62.2668 C 67.7248 61.6386 67.8549 60.4451 67.3926 59.4051 C 66.172 56.6689 64.8647 53.9119 62.6834 51.7551 C 60.6321 49.7239 57.6708 48.3559 54.6878 48.5024 C 51.3942 48.663 48.9168 50.5685 47.5012 53.3814 C 46.0855 56.1943 45.0382 59.4679 44.4315 62.6437 C 43.7309 66.3082 43.5287 70.0355 43.8898 73.7488 C 43.9982 74.8725 44.8071 75.8428 46.0566 75.8428 C 47.1473 75.8428 48.3318 74.8795 48.2235 73.7488 L 48.2162 73.7418 Z" stroke-linecap="round"/>
</g>
		<g transform="matrix(1 0 0 1 -19.0915 -11.7668)">
<path style="stroke: none; stroke-width: 1; stroke-dasharray: none; stroke-linecap: butt; stroke-dashoffset: 0; stroke-linejoin: miter; stroke-miterlimit: 4; is-custom-font: none; font-file-url: none; fill: rgb(231,242,253); fill-rule: nonzero; opacity: 1;" transform=" translate(-55.4085, -69.2331)" d="M 55.4099 71.3271 C 58.1977 71.3271 58.2049 67.1392 55.4099 67.1392 C 52.6148 67.1392 52.6148 71.3271 55.4099 71.3271 Z" stroke-linecap="round"/>
</g>
		<g transform="matrix(1 0 0 1 4.4075 -23.9444)">
<path style="stroke: none; stroke-width: 1; stroke-dasharray: none; stroke-linecap: butt; stroke-dashoffset: 0; stroke-linejoin: miter; stroke-miterlimit: 4; is-custom-font: none; font-file-url: none; fill: rgb(231,242,253); fill-rule: nonzero; opacity: 1;" transform=" translate(-78.9075, -57.0556)" d="M 76.0597 67.9277 C 75.9008 64.4866 75.713 61.0455 75.583 57.6044 C 75.4891 55.1754 75.4314 52.4672 76.4858 50.4291 C 77.0058 49.417 77.6342 48.733 78.3708 48.377 C 77.9592 48.5724 78.667 48.3142 78.7609 48.2862 C 79.0137 48.2444 79.0137 48.2374 78.7609 48.2723 C 78.8909 48.2583 79.0208 48.2513 79.1508 48.2444 C 79.4108 48.2374 79.6781 48.2444 79.9381 48.2723 C 79.447 48.2234 80.2414 48.3491 80.3353 48.377 C 80.4147 48.3979 81.1659 48.6632 80.7398 48.4817 C 80.9131 48.5585 81.0864 48.6422 81.2598 48.733 C 81.3464 48.7818 81.9675 49.2146 81.592 48.9144 C 81.7798 49.061 81.9387 49.2355 82.1121 49.396 C 82.2709 49.5775 82.2637 49.5705 82.0904 49.3681 C 82.1554 49.4589 82.2131 49.5496 82.2637 49.6473 C 82.372 49.8567 82.3648 49.8358 82.242 49.5845 C 82.2781 49.6822 82.307 49.7869 82.3287 49.8916 C 82.4803 49.1029 82.1842 50.5128 82.3431 49.7381 C 82.3215 49.8497 82.0615 50.464 82.2565 50.0731 C 81.7437 51.0922 81.9675 52.3346 83.0364 52.9349 C 83.9898 53.4723 85.4849 53.2071 85.9977 52.181 C 88.4966 47.2253 82.6465 43.4352 77.9953 44.1751 C 75.2363 44.6148 73.3297 46.8763 72.3185 49.2564 C 71.3074 51.6366 71.163 54.3867 71.2352 56.9692 C 71.3291 60.6267 71.5674 64.2842 71.7336 67.9347 C 71.7841 69.0654 72.6941 70.0287 73.9003 70.0287 C 75.0342 70.0287 76.1175 69.0724 76.067 67.9347 L 76.0597 67.9277 Z" stroke-linecap="round"/>
</g>
		<g transform="matrix(1 0 0 1 5.9216 -17.3222)">
<path style="stroke: none; stroke-width: 1; stroke-dasharray: none; stroke-linecap: butt; stroke-dashoffset: 0; stroke-linejoin: miter; stroke-miterlimit: 4; is-custom-font: none; font-file-url: none; fill: rgb(231,242,253); fill-rule: nonzero; opacity: 1;" transform=" translate(-80.4216, -63.6778)" d="M 81.7226 63.4328 C 81.7226 63.4328 81.7226 63.37 81.7298 63.3421 L 81.6504 63.9005 C 81.6576 63.8377 81.672 63.7818 81.6937 63.726 L 81.4771 64.2285 C 81.4915 64.1936 81.5131 64.1588 81.542 64.1239 L 81.2026 64.5496 C 81.2026 64.5496 81.2459 64.5077 81.2676 64.4868 L 80.827 64.8149 C 80.827 64.8149 80.8776 64.7869 80.9065 64.773 L 80.3865 64.9824 C 80.3865 64.9824 80.4587 64.9614 80.4948 64.9545 L 79.917 65.0312 C 79.9676 65.0312 80.0181 65.0312 80.0687 65.0312 L 79.4909 64.9545 C 79.5776 64.9684 79.6642 64.9894 79.7509 65.0243 L 79.2309 64.8149 C 79.3682 64.8707 79.4909 64.9475 79.6064 65.0312 L 79.1659 64.7032 C 79.2886 64.7939 79.4043 64.9056 79.5054 65.0243 L 79.1659 64.5985 C 79.2309 64.6753 79.2815 64.759 79.3248 64.8498 L 79.1081 64.3472 C 79.1298 64.403 79.1514 64.4589 79.1586 64.5147 L 79.0792 63.9563 C 79.0792 63.9912 79.0792 64.0331 79.0792 64.068 L 79.1586 63.5096 C 79.1586 63.5096 79.1442 63.5724 79.1298 63.6004 L 79.3464 63.0978 C 79.3464 63.0978 79.3176 63.1467 79.3031 63.1746 L 79.6426 62.7488 C 79.6426 62.7488 79.592 62.7977 79.5704 62.8186 L 80.0109 62.4905 C 79.9676 62.5185 79.9242 62.5464 79.8736 62.5673 L 80.3937 62.3579 C 80.3432 62.3789 80.2925 62.3928 80.242 62.4068 C 79.9603 62.4696 79.7148 62.5953 79.5054 62.7837 C 79.267 62.9303 79.0865 63.1257 78.9492 63.37 C 78.7904 63.6073 78.7037 63.8726 78.6893 64.1518 C 78.6242 64.431 78.6386 64.7102 78.7253 64.9894 L 78.942 65.4919 C 79.137 65.806 79.397 66.0573 79.722 66.2457 L 80.242 66.4551 C 80.6248 66.5529 81.0076 66.5529 81.3976 66.4551 C 81.6432 66.3993 81.8815 66.2806 82.0982 66.1829 C 82.1198 66.169 82.1487 66.155 82.1704 66.141 C 82.3437 66.0294 82.517 65.9037 82.6687 65.7711 C 82.9648 65.5059 83.2754 65.0173 83.3476 64.6334 C 83.3765 64.4938 83.4271 64.2216 83.4271 64.0191 C 83.4271 64.0052 83.4271 63.9982 83.4271 63.9842 C 83.4126 63.7958 83.3765 63.5864 83.3476 63.3979 C 83.3404 63.3491 83.3259 63.3072 83.3115 63.2583 C 83.2104 62.9931 83.1093 62.7069 82.9288 62.4766 C 82.7482 62.2463 82.5676 61.988 82.3365 61.7995 C 82.1487 61.646 81.9537 61.4994 81.7587 61.3668 C 81.7082 61.3319 81.6503 61.297 81.5998 61.2691 C 81.3903 61.1574 81.1304 61.0667 80.9282 60.9829 C 80.8776 60.962 80.8198 60.941 80.7693 60.9271 C 80.5382 60.8712 80.2926 60.8433 80.0471 60.8293 C 79.8015 60.8154 79.5559 60.8712 79.3392 60.9131 C 79.3103 60.9131 79.2887 60.927 79.267 60.934 C 79.1803 60.9619 79.0142 61.0387 78.9998 61.0457 C 78.9925 61.0457 78.8048 61.1155 78.7253 61.1574 C 78.7181 61.1574 78.7036 61.1644 78.6964 61.1713 C 78.2775 61.4226 78.097 61.625 77.8153 62.0159 C 77.8008 62.0369 77.7864 62.0578 77.772 62.0857 C 77.6781 62.2742 77.5842 62.4626 77.5264 62.665 C 77.5192 62.6999 77.512 62.7348 77.5048 62.7697 C 77.4687 62.9861 77.4253 63.2095 77.4181 63.4328 C 77.4037 63.719 77.4687 63.9912 77.6059 64.2425 C 77.6926 64.5008 77.8442 64.7241 78.0537 64.9196 C 78.2487 65.122 78.4798 65.2686 78.7542 65.3523 C 79.0142 65.4849 79.2887 65.5408 79.592 65.5338 L 80.1698 65.457 C 80.5381 65.3593 80.8559 65.1778 81.1232 64.9196 L 81.4626 64.4938 C 81.6576 64.1657 81.7587 63.8167 81.7587 63.4398 L 81.7226 63.4328 Z" stroke-linecap="round"/>
</g>
		<g transform="matrix(1 0 0 1 -0.3423 11.1985)">
<path style="stroke: none; stroke-width: 1; stroke-dasharray: none; stroke-linecap: butt; stroke-dashoffset: 0; stroke-linejoin: miter; stroke-miterlimit: 4; is-custom-font: none; font-file-url: none; fill: rgb(231,242,253); fill-rule: nonzero; opacity: 1;" transform=" translate(-74.1577, -92.1985)" d="M 59.2381 99.4422 C 70.6572 101.055 82.6615 96.8526 90.0431 88.1836 C 90.787 87.3111 90.9243 86.0756 90.0431 85.2241 C 89.2775 84.4842 87.7246 84.3446 86.9807 85.2241 C 80.6174 92.7066 70.2166 96.7898 60.3937 95.4078 C 59.2381 95.2473 58.068 95.687 57.7286 96.8736 C 57.4469 97.8577 58.0752 99.2886 59.2453 99.4492 L 59.2381 99.4422 Z" stroke-linecap="round"/>
</g>
		<g transform="matrix(1 0 0 1 -9.3037 -47.9809)">
<path style="stroke: none; stroke-width: 1; stroke-dasharray: none; stroke-linecap: butt; stroke-dashoffset: 0; stroke-linejoin: miter; stroke-miterlimit: 4; is-custom-font: none; font-file-url: none; fill: rgb(231,242,253); fill-rule: nonzero; opacity: 1;" transform=" translate(-65.1962, -33.0191)" d="M 40.9647 43.6795 C 54.175 39.9452 67.1976 35.5898 79.9674 30.6061 C 83.6799 29.1543 87.3708 27.6536 91.04 26.111 C 92.1161 25.6573 92.3617 24.1427 91.82 23.2493 C 91.1699 22.1814 89.9349 22.0418 88.8587 22.4955 C 76.4645 27.7164 63.7958 32.3371 50.9321 36.3506 C 47.2412 37.5023 43.536 38.5981 39.8163 39.6521 C 37.1438 40.4059 38.285 44.4473 40.9719 43.6934 L 40.9647 43.6795 Z" stroke-linecap="round"/>
</g>
		<g transform="matrix(1 0 0 1 23.6649 -23.3687)">
<path style="stroke: none; stroke-width: 1; stroke-dasharray: none; stroke-linecap: butt; stroke-dashoffset: 0; stroke-linejoin: miter; stroke-miterlimit: 4; is-custom-font: none; font-file-url: none; fill: rgb(231,242,253); fill-rule: nonzero; opacity: 1;" transform=" translate(-98.1649, -57.6313)" d="M 90.7295 22.8166 C 92.1234 41.1877 94.579 59.4891 98.0963 77.595 C 99.1002 82.7461 100.184 87.8834 101.361 93.0066 C 101.614 94.1094 102.942 94.7585 104.026 94.4724 C 105.203 94.1583 105.795 93.0066 105.543 91.8968 C 101.484 74.1609 98.443 56.2155 96.4785 38.1445 C 95.9224 33.0422 95.4601 27.9329 95.0701 22.8166 C 94.9835 21.6859 94.1384 20.7227 92.9034 20.7227 C 91.7984 20.7227 90.6501 21.6859 90.7367 22.8166 H 90.7295 Z" stroke-linecap="round"/>
</g>
		<g transform="matrix(1 0 0 1 -0.2999 24.5845)">
<path style="stroke: none; stroke-width: 1; stroke-dasharray: none; stroke-linecap: butt; stroke-dashoffset: 0; stroke-linejoin: miter; stroke-miterlimit: 4; is-custom-font: none; font-file-url: none; fill: rgb(231,242,253); fill-rule: nonzero; opacity: 1;" transform=" translate(-74.2, -105.5845)" d="M 42.4092 117.485 C 59.2237 112.355 76.0383 107.218 92.8529 102.088 C 97.6126 100.636 102.38 99.1771 107.139 97.7253 C 108.252 97.3833 108.974 96.2665 108.656 95.1497 C 108.353 94.0888 107.11 93.3419 105.991 93.684 C 89.1764 98.8142 72.3619 103.951 55.5474 109.082 C 50.7876 110.533 46.0206 111.992 41.2608 113.444 C 40.1485 113.786 39.4262 114.903 39.744 116.02 C 40.0474 117.081 41.2897 117.827 42.4092 117.485 Z" stroke-linecap="round"/>
</g>
		<g transform="matrix(1 0 0 1 -14.7384 44.7875)">
<path style="stroke: none; stroke-width: 1; stroke-dasharray: none; stroke-linecap: butt; stroke-dashoffset: 0; stroke-linejoin: miter; stroke-miterlimit: 4; is-custom-font: none; font-file-url: none; fill: rgb(231,242,253); fill-rule: nonzero; opacity: 1;" transform=" translate(-59.7616, -125.7875)" d="M 60.7546 106.387 C 58.6962 118.951 56.6452 131.515 54.5868 144.078 C 54.4062 145.195 54.8829 146.333 56.1035 146.654 C 57.1363 146.926 58.5879 146.312 58.7685 145.188 C 60.8268 132.624 62.878 120.06 64.9364 107.497 C 65.1169 106.38 64.6403 105.242 63.4197 104.921 C 62.3869 104.649 60.9352 105.263 60.7546 106.387 Z" stroke-linecap="round"/>
</g>
		<g transform="matrix(1 0 0 1 18.0351 40.4775)">
<path style="stroke: none; stroke-width: 1; stroke-dasharray: none; stroke-linecap: butt; stroke-dashoffset: 0; stroke-linejoin: miter; stroke-miterlimit: 4; is-custom-font: none; font-file-url: none; fill: rgb(231,242,253); fill-rule: nonzero; opacity: 1;" transform=" translate(-92.5351, -121.4775)" d="M 89.2923 102.597 C 90.0073 115.182 90.7223 127.773 91.4445 140.358 C 91.5095 141.489 92.3979 142.452 93.6112 142.452 C 94.7379 142.452 95.8429 141.496 95.7779 140.358 C 95.0629 127.773 94.3479 115.182 93.6257 102.597 C 93.5607 101.466 92.6723 100.503 91.459 100.503 C 90.3323 100.503 89.2273 101.459 89.2923 102.597 Z" stroke-linecap="round"/>
</g>
		<g transform="matrix(1 0 0 1 -53.6182 -7.9264)">
<path style="stroke: none; stroke-width: 1; stroke-dasharray: none; stroke-linecap: butt; stroke-dashoffset: 0; stroke-linejoin: miter; stroke-miterlimit: 4; is-custom-font: none; font-file-url: none; fill: rgb(231,242,253); fill-rule: nonzero; opacity: 1;" transform=" translate(-20.8818, -73.0736)" d="M 39.4477 71.7105 C 27.1257 69.812 14.6448 69.8329 2.32278 71.7663 C 1.16714 71.9478 0.524332 73.3368 0.806018 74.3419 C 1.14549 75.5285 2.31562 75.9892 3.47125 75.8077 C 14.9554 73.9999 26.7934 73.979 38.292 75.7519 C 39.4477 75.9264 40.6249 75.4657 40.9572 74.2861 C 41.2389 73.2879 40.6033 71.892 39.4404 71.7105 H 39.4477 Z" stroke-linecap="round"/>
</g>
		<g transform="matrix(1 0 0 1 43.673 -33.9327)">
<path style="stroke: none; stroke-width: 1; stroke-dasharray: none; stroke-linecap: butt; stroke-dashoffset: 0; stroke-linejoin: miter; stroke-miterlimit: 4; is-custom-font: none; font-file-url: none; fill: rgb(231,242,253); fill-rule: nonzero; opacity: 1;" transform=" translate(-118.173, -47.0673)" d="M 98.4723 60.0959 C 107.104 51.3431 117.815 44.5238 129.588 40.3986 C 132.975 39.2121 136.442 38.2418 139.96 37.495 C 141.101 37.2507 141.773 35.9664 141.477 34.9194 C 141.152 33.7817 139.96 33.2093 138.811 33.4536 C 125.89 36.2177 113.763 41.9552 103.463 49.9681 C 100.618 52.1807 97.9306 54.5818 95.4099 57.1365 C 93.4886 59.0908 96.5439 62.0503 98.4723 60.0959 Z" stroke-linecap="round"/>
</g>
		<g transform="matrix(1 0 0 1 67.8069 -46.3994)">
<path style="stroke: none; stroke-width: 1; stroke-dasharray: none; stroke-linecap: butt; stroke-dashoffset: 0; stroke-linejoin: miter; stroke-miterlimit: 4; is-custom-font: none; font-file-url: none; fill: rgb(231,242,253); fill-rule: nonzero; opacity: 1;" transform=" translate(-142.3068, -34.6007)" d="M 141.52 15.2153 C 139.584 27.8838 138.689 40.678 138.92 53.4861 C 138.97 56.1804 143.304 56.1873 143.253 53.4861 C 143.029 41.0619 143.817 28.6237 145.694 16.3321 C 145.868 15.2153 145.405 14.0845 144.178 13.7565 C 143.159 13.4843 141.686 14.0915 141.513 15.2223 L 141.52 15.2153 Z" stroke-linecap="round"/>
</g>
		<g transform="matrix(1 0 0 1 68.8265 -72.263)">
<path style="stroke: none; stroke-width: 1; stroke-dasharray: none; stroke-linecap: butt; stroke-dashoffset: 0; stroke-linejoin: miter; stroke-miterlimit: 4; is-custom-font: none; font-file-url: none; fill: rgb(231,242,253); fill-rule: nonzero; opacity: 1;" transform=" translate(-143.3265, -8.737)" d="M 142.654 13.0306 C 142.574 13.0655 142.495 13.1004 142.415 13.1143 C 142.293 13.1423 142.307 13.1423 142.459 13.1143 C 142.603 13.1423 143.022 13.0794 142.675 13.0934 L 142.885 13.1772 C 142.712 13.0725 142.69 13.0655 142.813 13.1562 C 143.036 13.2819 142.675 13.0166 142.639 12.9817 C 142.921 13.2679 142.582 12.87 142.704 13.0794 C 142.827 13.2888 142.661 12.9189 142.646 12.8491 C 142.69 13.1143 142.647 12.9817 142.69 12.8282 C 142.56 13.24 142.762 12.6118 142.769 12.5909 C 142.805 12.4652 142.899 12.3326 142.798 12.5211 C 142.885 12.3675 142.971 12.2139 143.073 12.0674 C 143.13 11.9836 143.362 11.6835 143.188 11.8998 C 143.304 11.7602 143.427 11.6346 143.549 11.509 C 144.04 11.0064 144.589 10.5527 145.109 10.0711 C 146.258 8.98922 147.211 7.69096 147.565 6.15538 C 147.962 4.43832 147.717 2.79106 146.987 1.19964 C 146.547 0.250371 145.182 -0.0218422 144.279 0.341113 C 143.275 0.752928 142.762 1.78595 143.022 2.812 C 143.318 3.9916 143.622 5.17121 143.817 6.36478 C 143.939 7.11163 143.795 6.01578 143.867 6.76263 C 143.896 7.0837 143.925 7.40478 143.939 7.72586 C 143.961 8.25633 143.939 8.7868 143.896 9.31728 C 143.867 9.56855 143.867 9.57553 143.896 9.33821 C 143.881 9.43593 143.86 9.53366 143.845 9.62439 C 143.802 9.84775 143.744 10.0711 143.687 10.2875 C 143.614 10.5388 143.528 10.7831 143.441 11.0274 C 143.296 11.4392 143.578 10.8249 143.347 11.2437 C 143.217 11.4671 143.102 11.6974 142.964 11.9208 C 142.914 12.0045 142.618 12.4094 142.849 12.1232 C 142.69 12.3256 142.509 12.5141 142.322 12.6886 C 142.228 12.7793 142.126 12.8631 142.025 12.9468 C 142.206 12.8212 142.191 12.8282 141.989 12.9678 C 141.072 13.6029 140.538 14.8244 141.209 15.8295 C 141.801 16.709 143.188 17.2604 144.17 16.5834 C 146.344 15.0827 147.724 12.8072 148.114 10.2596 C 148.554 7.34895 147.933 4.5151 147.218 1.69522 L 143.26 3.30757 C 143.101 2.95858 143.325 3.53093 143.333 3.55885 C 143.39 3.75429 143.441 3.94972 143.47 4.14516 C 143.427 3.83805 143.455 4.14517 143.455 4.29174 C 143.455 4.45926 143.455 4.62678 143.448 4.7943 C 143.419 5.37363 143.557 4.47322 143.405 5.03161 C 143.354 5.22705 143.297 5.41551 143.232 5.61095 C 143.116 5.95994 143.275 5.56906 143.166 5.75752 C 143.08 5.9041 143 6.05068 142.906 6.19028 C 142.589 6.69283 143.13 5.98786 142.726 6.42062 C 142.581 6.57418 142.437 6.72773 142.293 6.87431 C 142.04 7.1186 141.78 7.35592 141.513 7.59324 C 140.812 8.22143 140.169 8.84962 139.599 9.59647 C 138.421 11.146 137.945 13.247 138.905 15.0129 C 139.786 16.6252 141.968 17.8048 143.831 17.058 C 144.871 16.6392 145.738 15.648 145.348 14.4824 C 145.023 13.5122 143.802 12.5699 142.683 13.0166 L 142.654 13.0306 Z" stroke-linecap="round"/>
</g>
</g>
</g>
<g transform="matrix(0.9841 0 0 0.9841 188.1602 473.2285)" id="420995">
<g style="" vector-effect="non-scaling-stroke">
		<g transform="matrix(1 0 0 1 -9.2558 62.2566)">
<path style="stroke: none; stroke-width: 1; stroke-dasharray: none; stroke-linecap: butt; stroke-dashoffset: 0; stroke-linejoin: miter; stroke-miterlimit: 4; is-custom-font: none; font-file-url: none; fill: rgb(81,108,130); fill-rule: nonzero; opacity: 1;" transform=" translate(-53.7442, -133.7565)" d="M 52.5285 142.213 C 75.7868 140.838 108.165 136.165 106.696 132.106 C 104.623 126.383 34.4651 120.032 9.97502 128.949 C 2.2401 131.766 -2.37334 136.623 3.20407 139.684 C 12.1555 144.601 43.4777 142.745 52.5362 142.213 H 52.5285 Z" stroke-linecap="round"/>
</g>
		<g transform="matrix(1 0 0 1 -3.1545 -8.605)">
<path style="stroke: none; stroke-width: 1; stroke-dasharray: none; stroke-linecap: butt; stroke-dashoffset: 0; stroke-linejoin: miter; stroke-miterlimit: 4; is-custom-font: none; font-file-url: none; fill: rgb(0,111,220); fill-rule: nonzero; opacity: 1;" transform=" translate(-59.8455, -62.895)" d="M 30.5785 39.5389 L 88.4259 13.1069 C 91.4327 81.549 83.5907 95.3823 83.5907 95.3823 L 33.7688 112.683 L 30.5785 39.5315 V 39.5389 Z" stroke-linecap="round"/>
</g>
		<g transform="matrix(1 0 0 1 -0.8655 -25.0369)">
<path style="stroke: none; stroke-width: 1; stroke-dasharray: none; stroke-linecap: butt; stroke-dashoffset: 0; stroke-linejoin: miter; stroke-miterlimit: 4; is-custom-font: none; font-file-url: none; fill: rgb(231,242,253); fill-rule: nonzero; opacity: 1;" transform=" translate(-62.1344, -46.4632)" d="M 57.0043 58.7473 C 53.9823 55.0358 53.1866 49.8011 54.4872 45.3428 C 55.7878 40.8845 59.529 37.2543 64.0277 35.7238 C 66.6749 34.8218 69.4444 34.5482 72.061 35.0362 C 73.2775 35.2654 74.5399 34.7035 74.8842 33.4836 C 75.1902 32.3967 74.5017 30.9846 73.2775 30.7554 C 66.9657 29.5724 60.4319 31.3838 55.6348 35.5094 C 50.8378 39.635 48.6573 45.9935 49.4836 52.0857 C 49.9732 55.716 51.4116 59.0061 53.7604 61.8822 C 54.5255 62.8212 56.201 62.6585 57.0043 61.8822 C 57.9683 60.9506 57.7771 59.6863 57.0043 58.7473 Z" stroke-linecap="round"/>
</g>
		<g transform="matrix(1 0 0 1 2.2864 -23.6213)">
<path style="stroke: none; stroke-width: 1; stroke-dasharray: none; stroke-linecap: butt; stroke-dashoffset: 0; stroke-linejoin: miter; stroke-miterlimit: 4; is-custom-font: none; font-file-url: none; fill: rgb(231,242,253); fill-rule: nonzero; opacity: 1;" transform=" translate(-65.2863, -47.8787)" d="M 63.0253 50.1116 C 63.186 50.2447 63.3543 50.363 63.5226 50.4813 C 63.5456 50.496 63.5608 50.5108 63.5838 50.5182 C 63.5991 50.5256 63.622 50.5404 63.6373 50.5478 C 63.8285 50.6439 64.0428 50.7253 64.2417 50.7992 C 64.2799 50.814 64.3259 50.8288 64.3641 50.8362 C 64.3871 50.8362 64.4023 50.8362 64.4253 50.8436 C 64.6472 50.8805 64.869 50.9175 65.0909 50.9323 C 65.1291 50.9323 65.1674 50.9323 65.2133 50.9323 C 65.3357 50.9249 65.4657 50.9027 65.5805 50.8879 C 65.6953 50.8731 65.8253 50.8583 65.9477 50.8362 C 65.9936 50.8288 66.0319 50.814 66.0778 50.8066 C 66.3073 50.7326 66.5292 50.6365 66.7434 50.5404 C 66.8275 50.5034 66.9116 50.4517 66.9881 50.3999 C 67.2023 50.2447 67.4549 50.0894 67.6308 49.8898 C 67.7838 49.7197 67.9292 49.5423 68.0592 49.3574 C 68.0822 49.3205 68.1127 49.2835 68.128 49.2391 C 68.1816 49.143 68.2199 49.0247 68.2658 48.9286 C 68.3117 48.8325 68.3652 48.7142 68.4034 48.6107 C 68.4187 48.5663 68.4264 48.522 68.4417 48.485 C 68.48 48.2854 68.5106 48.0562 68.5259 47.8566 C 68.5259 47.8344 68.5259 47.8196 68.5259 47.7974 C 68.5259 47.7752 68.5259 47.7531 68.5259 47.7309 C 68.5106 47.5165 68.4723 47.302 68.4417 47.095 C 68.4417 47.0507 68.4264 47.0137 68.4111 46.9693 C 68.4111 46.9471 68.3959 46.925 68.3882 46.9102 C 68.3117 46.7179 68.2351 46.5257 68.1357 46.3409 C 68.1204 46.3113 68.0975 46.2743 68.0745 46.2448 C 67.9674 46.0895 67.8221 45.912 67.692 45.7716 C 67.6767 45.7568 67.6614 45.7346 67.6461 45.7198 C 67.5543 45.6311 67.4319 45.5498 67.3401 45.4832 C 67.2483 45.4167 67.1335 45.3132 67.0188 45.2466 C 66.4909 44.9509 66.0471 44.877 65.4504 44.8252 C 65.3663 44.8252 65.2898 44.8252 65.2056 44.8252 C 64.9685 44.8474 64.7313 44.877 64.4941 44.9213 C 64.4559 44.9213 64.4177 44.9361 64.3794 44.9509 C 64.3335 44.9657 64.2953 44.9805 64.2494 44.9953 C 64.0351 45.0766 63.8057 45.1579 63.5991 45.2688 C 63.5608 45.291 63.5226 45.3132 63.492 45.3354 C 63.3237 45.4536 63.14 45.5793 62.987 45.7124 C 62.9717 45.7272 62.9565 45.7346 62.9412 45.7494 C 62.9259 45.7642 62.9105 45.779 62.8952 45.8011 C 62.7575 45.949 62.6275 46.1191 62.5127 46.2817 C 62.4898 46.3187 62.4668 46.3483 62.4439 46.3852 C 62.3903 46.4888 62.3444 46.607 62.2985 46.7032 C 62.2602 46.7919 62.1991 46.9102 62.1608 47.0137 C 62.1455 47.0581 62.1378 47.1024 62.1302 47.1468 C 62.0307 47.4425 62.0231 47.7382 62.0919 48.034 C 62.1072 48.3297 62.1991 48.6033 62.3674 48.8621 C 62.5128 49.1209 62.7116 49.3279 62.9564 49.4831 C 63.1783 49.6828 63.4384 49.8084 63.7367 49.8824 L 64.3488 49.9637 C 64.7619 49.9637 65.1521 49.8602 65.504 49.6606 L 65.9707 49.3131 C 66.2537 49.0395 66.4527 48.7068 66.5598 48.3371 C 66.5674 48.2706 66.5827 48.2114 66.6133 48.1523 L 66.3838 48.6846 C 66.4068 48.6255 66.4374 48.5737 66.4756 48.5294 L 66.116 48.9804 C 66.1619 48.9286 66.2078 48.8843 66.2614 48.8399 L 65.7947 49.1874 C 65.8636 49.1356 65.94 49.0913 66.0242 49.0617 L 65.4734 49.2835 C 65.5728 49.2465 65.68 49.217 65.7871 49.2022 L 65.175 49.2835 C 65.2821 49.2687 65.3893 49.2687 65.504 49.2835 L 64.892 49.2022 C 64.9838 49.217 65.068 49.2391 65.1445 49.2687 L 64.5936 49.0469 C 64.6624 49.0765 64.7236 49.1135 64.7848 49.1578 L 64.3182 48.8103 C 64.3717 48.8473 64.41 48.8916 64.4483 48.936 L 64.0887 48.485 C 64.127 48.5294 64.1576 48.5811 64.1805 48.6329 L 63.951 48.1006 C 63.9739 48.1597 63.9968 48.2262 64.0045 48.2928 L 63.9203 47.7013 C 63.928 47.7678 63.928 47.827 63.9203 47.8935 L 64.0045 47.302 C 63.9968 47.3686 63.9739 47.4351 63.9433 47.5017 L 64.1729 46.9693 C 64.1423 47.0433 64.0963 47.1098 64.0504 47.169 L 64.41 46.7179 C 64.3488 46.7993 64.2723 46.8658 64.1882 46.9324 L 64.6548 46.5849 C 64.5707 46.644 64.4788 46.6958 64.387 46.7401 L 64.9379 46.5183 C 64.8461 46.5553 64.7543 46.5775 64.6625 46.5923 L 65.2745 46.5109 C 65.198 46.5183 65.1139 46.5183 65.0374 46.5109 L 65.6493 46.5923 C 65.5805 46.5849 65.5193 46.5627 65.4581 46.5405 L 66.009 46.7623 C 65.9554 46.7401 65.9018 46.7105 65.8482 46.6736 L 66.3149 47.0211 C 66.3149 47.0211 66.292 47.0063 66.2844 46.9915 C 66.0778 46.7771 65.8329 46.6218 65.5422 46.5331 C 65.2668 46.3926 64.9762 46.3335 64.6548 46.3409 C 64.3412 46.3261 64.0428 46.3926 63.7674 46.5331 C 63.4843 46.6218 63.2395 46.7771 63.0253 46.9915 L 62.6657 47.4425 C 62.4591 47.79 62.3521 48.1597 62.3521 48.5589 L 62.4362 49.1504 C 62.5433 49.5275 62.7423 49.8528 63.0253 50.1264 V 50.1116 Z" stroke-linecap="round"/>
</g>
		<g transform="matrix(1 0 0 1 23.2934 -31.4534)">
<path style="stroke: none; stroke-width: 1; stroke-dasharray: none; stroke-linecap: butt; stroke-dashoffset: 0; stroke-linejoin: miter; stroke-miterlimit: 4; is-custom-font: none; font-file-url: none; fill: rgb(231,242,253); fill-rule: nonzero; opacity: 1;" transform=" translate(-86.2934, -40.0467)" d="M 85.0518 53.2467 C 85.1512 50.755 84.4474 48.3152 83.6671 45.9714 C 83.2846 44.8328 82.8867 43.7016 82.5654 42.5408 C 82.2441 41.38 82.0759 40.6776 82.0759 39.5686 C 82.0759 38.7405 82.2671 37.8681 82.7338 37.0992 C 82.8179 36.9661 83.1163 36.5447 83.0627 36.6112 C 82.9862 36.7073 83.3152 36.345 83.3917 36.2711 C 83.5447 36.1158 83.7054 35.968 83.8737 35.8275 C 83.9578 35.7609 84.4551 35.3765 84.1949 35.5613 C 85.8551 34.3857 87.7906 33.6242 89.5885 32.6778 C 91.7 31.5614 93.7426 30.0827 94.7907 27.9238 C 95.3186 26.8369 95.1043 25.5283 93.9644 24.8924 C 92.9699 24.3305 91.3557 24.5967 90.8278 25.6909 C 90.736 25.8831 90.6365 26.0828 90.5218 26.2676 C 90.4682 26.3563 90.1239 26.8369 90.2081 26.7408 C 90.2999 26.6299 89.9634 26.9996 89.8945 27.0735 C 89.6956 27.2732 89.4737 27.4654 89.2595 27.6502 C 89.0606 27.8129 89.2595 27.665 89.2901 27.6354 C 89.2059 27.702 89.1142 27.7611 89.0223 27.8277 C 88.8081 27.9755 88.5863 28.116 88.3644 28.2491 C 87.9131 28.5227 87.4387 28.7814 86.9644 29.018 C 85.0059 30.0235 82.9938 30.8886 81.2343 32.2194 C 79.3829 33.6242 78.0135 35.6131 77.654 37.8903 C 77.2408 40.4706 77.8605 42.9918 78.6638 45.4465 C 79.5206 48.0564 80.5687 50.622 80.4616 53.2688 C 80.4157 54.4666 81.5479 55.4869 82.7567 55.4869 C 84.0419 55.4869 85.0059 54.474 85.0518 53.2688 V 53.2467 Z" stroke-linecap="round"/>
</g>
		<g transform="matrix(1 0 0 1 25.8087 -27.2328)">
<path style="stroke: none; stroke-width: 1; stroke-dasharray: none; stroke-linecap: butt; stroke-dashoffset: 0; stroke-linejoin: miter; stroke-miterlimit: 4; is-custom-font: none; font-file-url: none; fill: rgb(231,242,253); fill-rule: nonzero; opacity: 1;" transform=" translate(-88.8087, -44.2672)" d="M 90.8972 45.5351 L 91.1497 44.1895 C 91.2492 43.8938 91.2568 43.598 91.1879 43.3023 C 91.1726 43.0065 91.0808 42.733 90.9125 42.4742 C 90.7672 42.2154 90.5682 42.0084 90.3234 41.8531 C 90.1016 41.6535 89.8414 41.5278 89.5431 41.4539 L 88.9311 41.3726 C 88.518 41.3726 88.1278 41.4761 87.7759 41.6757 L 87.3092 42.0232 C 87.0262 42.2968 86.8273 42.6294 86.7201 42.9991 L 86.4677 44.3448 C 86.3683 44.6405 86.3606 44.9362 86.4294 45.232 C 86.4447 45.5277 86.5365 45.8013 86.7048 46.0601 C 86.8502 46.3188 87.0491 46.5259 87.2939 46.6811 C 87.5158 46.8807 87.7759 47.0064 88.0743 47.0804 L 88.6862 47.1617 C 89.0994 47.1617 89.4895 47.0582 89.8415 46.8586 L 90.3081 46.5111 C 90.5912 46.2375 90.7901 45.9048 90.8972 45.5351 Z" stroke-linecap="round"/>
</g>
		<g transform="matrix(1 0 0 1 -28.7916 -16.8332)">
<path style="stroke: none; stroke-width: 1; stroke-dasharray: none; stroke-linecap: butt; stroke-dashoffset: 0; stroke-linejoin: miter; stroke-miterlimit: 4; is-custom-font: none; font-file-url: none; fill: rgb(231,242,253); fill-rule: nonzero; opacity: 1;" transform=" translate(-34.2084, -54.6668)" d="M 33.042 28.2561 C 33.6693 41.912 33.2944 55.5975 31.9097 69.2016 C 31.5272 72.9723 31.0682 76.743 30.5174 80.4989 C 30.3491 81.6819 30.8158 82.8797 32.124 83.2272 C 33.195 83.5155 34.771 82.8723 34.9469 81.6745 C 36.9513 67.8782 37.9841 53.9709 37.9305 40.0415 C 37.9152 36.1081 37.8158 32.1821 37.6322 28.2561 C 37.5786 27.0584 36.6147 26.0381 35.3371 26.0381 C 34.136 26.0381 32.9884 27.051 33.042 28.2561 Z" stroke-linecap="round"/>
</g>
		<g transform="matrix(1 0 0 1 3.4547 -57.5709)">
<path style="stroke: none; stroke-width: 1; stroke-dasharray: none; stroke-linecap: butt; stroke-dashoffset: 0; stroke-linejoin: miter; stroke-miterlimit: 4; is-custom-font: none; font-file-url: none; fill: rgb(231,242,253); fill-rule: nonzero; opacity: 1;" transform=" translate(-66.4548, -13.9291)" d="M 38.8108 27.428 C 54.1506 22.7405 69.1614 17.0253 83.6902 10.3342 C 87.791 8.44881 91.8459 6.48213 95.8702 4.44151 C 96.9642 3.887 97.3009 2.40828 96.6965 1.41015 C 96.0462 0.33809 94.6537 0.0571454 93.5596 0.611661 C 79.6123 7.69468 65.1676 13.8535 50.3405 18.9994 C 46.1249 20.4633 41.8787 21.8459 37.602 23.1546 C 36.4237 23.5169 35.6587 24.6998 35.9953 25.8828 C 36.3167 27.0066 37.6326 27.7977 38.8185 27.4354 L 38.8108 27.428 Z" stroke-linecap="round"/>
</g>
		<g transform="matrix(1 0 0 1 37.1049 -37.6463)">
<path style="stroke: none; stroke-width: 1; stroke-dasharray: none; stroke-linecap: butt; stroke-dashoffset: 0; stroke-linejoin: miter; stroke-miterlimit: 4; is-custom-font: none; font-file-url: none; fill: rgb(231,242,253); fill-rule: nonzero; opacity: 1;" transform=" translate(-100.1049, -33.8537)" d="M 93.8125 4.61928 C 94.1338 20.1457 95.8628 35.65 98.9612 50.8955 C 99.8256 55.169 100.813 59.4203 101.891 63.6494 C 102.603 66.4219 107.032 65.2464 106.321 62.4664 C 102.542 47.7089 100.07 32.6556 98.9918 17.4914 C 98.6858 13.2032 98.4945 8.91493 98.4027 4.61928 C 98.3415 1.76537 93.7513 1.75798 93.8125 4.61928 Z" stroke-linecap="round"/>
</g>
		<g transform="matrix(1 0 0 1 9.0292 4.6311)">
<path style="stroke: none; stroke-width: 1; stroke-dasharray: none; stroke-linecap: butt; stroke-dashoffset: 0; stroke-linejoin: miter; stroke-miterlimit: 4; is-custom-font: none; font-file-url: none; fill: rgb(231,242,253); fill-rule: nonzero; opacity: 1;" transform=" translate(-72.0292, -76.1311)" d="M 67.1261 81.1424 C 67.3556 80.9576 67.5927 80.7727 67.8298 80.5879 C 68.044 80.4252 68.0671 80.4105 67.8987 80.5287 C 68.0212 80.44 68.1359 80.3513 68.2583 80.2626 C 68.7403 79.9151 69.2299 79.575 69.7348 79.2497 C 70.737 78.599 71.7698 77.9928 72.8255 77.4383 C 75.0747 76.2627 76.6813 75.6194 79.1447 74.8875 C 80.2922 74.5474 81.1338 73.32 80.7513 72.1593 C 80.3687 70.9985 79.16 70.2443 77.9283 70.6066 C 72.7643 72.1371 68.0288 74.6509 63.8823 77.9854 C 62.9566 78.7321 63.0255 80.3587 63.8823 81.1202 C 64.8692 81.9927 66.1392 81.9187 67.1261 81.1202 V 81.1424 Z" stroke-linecap="round"/>
</g>
		<g transform="matrix(1 0 0 1 5.4826 21.957)">
<path style="stroke: none; stroke-width: 1; stroke-dasharray: none; stroke-linecap: butt; stroke-dashoffset: 0; stroke-linejoin: miter; stroke-miterlimit: 4; is-custom-font: none; font-file-url: none; fill: rgb(231,242,253); fill-rule: nonzero; opacity: 1;" transform=" translate(-68.4825, -93.457)" d="M 43.8833 106.783 C 55.696 98.3839 68.8477 91.7889 82.795 87.3897 C 86.7658 86.1402 90.7901 85.0681 94.8527 84.1587 C 96.0615 83.8926 96.773 82.5469 96.4593 81.4305 C 96.115 80.2328 94.845 79.6117 93.6362 79.8779 C 79.0309 83.1236 64.9382 88.6392 52.1078 96.1363 C 48.489 98.2508 44.9773 100.528 41.5651 102.946 C 40.5705 103.656 40.0655 104.868 40.7388 105.977 C 41.3126 106.931 42.8733 107.485 43.8756 106.776 L 43.8833 106.783 Z" stroke-linecap="round"/>
</g>
		<g transform="matrix(1 0 0 1 5.2678 35.9756)">
<path style="stroke: none; stroke-width: 1; stroke-dasharray: none; stroke-linecap: butt; stroke-dashoffset: 0; stroke-linejoin: miter; stroke-miterlimit: 4; is-custom-font: none; font-file-url: none; fill: rgb(231,242,253); fill-rule: nonzero; opacity: 1;" transform=" translate(-68.2678, -107.4756)" d="M 64.747 89.3933 C 64.089 101.704 65.0453 114.058 67.5087 126.147 C 67.7459 127.322 69.1994 127.995 70.3316 127.699 C 71.6016 127.359 72.1755 126.147 71.9383 124.971 C 69.5514 113.267 68.7022 101.312 69.3372 89.4007 C 69.3984 88.2029 68.2355 87.1826 67.0421 87.1826 C 65.7492 87.1826 64.8082 88.2029 64.747 89.4007 V 89.3933 Z" stroke-linecap="round"/>
</g>
		<g transform="matrix(1 0 0 1 18.2959 33.8808)">
<path style="stroke: none; stroke-width: 1; stroke-dasharray: none; stroke-linecap: butt; stroke-dashoffset: 0; stroke-linejoin: miter; stroke-miterlimit: 4; is-custom-font: none; font-file-url: none; fill: rgb(231,242,253); fill-rule: nonzero; opacity: 1;" transform=" translate(-81.2959, -105.3808)" d="M 76.2461 85.2234 C 75.3204 99.0419 77.3019 113.045 82.0375 126.117 C 82.4506 127.248 83.6057 128.002 84.8604 127.67 C 85.9926 127.367 86.8725 126.08 86.467 124.942 C 81.8462 112.202 79.9336 98.7018 80.8363 85.2308 C 80.9205 84.033 79.727 83.0127 78.5412 83.0127 C 77.233 83.0127 76.3303 84.033 76.2461 85.2308 V 85.2234 Z" stroke-linecap="round"/>
</g>
		<g transform="matrix(1 0 0 1 -32.7515 -3.6595)">
<path style="stroke: none; stroke-width: 1; stroke-dasharray: none; stroke-linecap: butt; stroke-dashoffset: 0; stroke-linejoin: miter; stroke-miterlimit: 4; is-custom-font: none; font-file-url: none; fill: rgb(231,242,253); fill-rule: nonzero; opacity: 1;" transform=" translate(-30.2486, -67.8404)" d="M 36.7062 44.7958 C 28.497 54.4887 22.9272 66.2001 20.8692 78.5843 C 20.2724 82.1628 19.9357 85.7708 19.8975 89.3863 C 19.8669 92.2402 24.4573 92.2476 24.488 89.3863 C 24.6027 77.6749 27.9767 66.0892 34.1356 56.0118 C 35.8647 53.1875 37.8003 50.474 39.9502 47.9307 C 40.7382 47.0065 40.8912 45.6978 39.9502 44.7958 C 39.1392 44.0121 37.4943 43.8642 36.7062 44.7958 Z" stroke-linecap="round"/>
</g>
		<g transform="matrix(1 0 0 1 47.2899 -31.4817)">
<path style="stroke: none; stroke-width: 1; stroke-dasharray: none; stroke-linecap: butt; stroke-dashoffset: 0; stroke-linejoin: miter; stroke-miterlimit: 4; is-custom-font: none; font-file-url: none; fill: rgb(231,242,253); fill-rule: nonzero; opacity: 1;" transform=" translate(-110.2899, -40.0183)" d="M 95.5108 27.1323 C 105.533 35.3391 114.293 44.9138 121.447 55.5679 C 122.12 56.5734 123.482 56.9874 124.584 56.3664 C 125.617 55.7823 126.083 54.3406 125.41 53.335 C 118.058 42.3704 109.076 32.4483 98.7624 24.0048 C 97.8137 23.2285 96.4442 23.1102 95.5185 24.0048 C 94.6999 24.7959 94.5698 26.3634 95.5185 27.1397 L 95.5108 27.1323 Z" stroke-linecap="round"/>
</g>
		<g transform="matrix(1 0 0 1 4.5966 54.7838)">
<path style="stroke: none; stroke-width: 1; stroke-dasharray: none; stroke-linecap: butt; stroke-dashoffset: 0; stroke-linejoin: miter; stroke-miterlimit: 4; is-custom-font: none; font-file-url: none; fill: rgb(231,242,253); fill-rule: nonzero; opacity: 1;" transform=" translate(-67.5965, -126.2838)" d="M 68.702 122.945 C 67.1949 123.892 65.6802 124.838 64.1731 125.785 C 63.6758 126.095 63.278 126.546 63.1173 127.108 C 62.9643 127.64 63.0331 128.343 63.3468 128.816 C 63.6604 129.289 64.1348 129.703 64.7162 129.836 L 65.3283 129.918 C 65.7414 129.918 66.1316 129.814 66.4835 129.614 C 67.9829 128.971 69.4747 128.335 70.9742 127.692 C 71.4638 127.485 71.8923 126.842 72.03 126.369 C 72.183 125.836 72.1141 125.134 71.8004 124.661 C 71.4868 124.188 71.0124 123.774 70.431 123.64 L 69.819 123.559 C 69.4059 123.559 69.0157 123.663 68.6638 123.862 C 67.1643 124.506 65.6725 125.141 64.1731 125.785 L 66.491 129.614 C 67.9981 128.668 69.5129 127.722 71.0201 126.775 C 71.5173 126.465 71.9152 126.014 72.0758 125.452 C 72.2288 124.92 72.1599 124.217 71.8463 123.744 C 71.5326 123.271 71.0583 122.857 70.4769 122.724 C 69.8955 122.591 69.2299 122.62 68.7096 122.945 H 68.702 Z" stroke-linecap="round"/>
</g>
		<g transform="matrix(1 0 0 1 25.0055 54.3314)">
<path style="stroke: none; stroke-width: 1; stroke-dasharray: none; stroke-linecap: butt; stroke-dashoffset: 0; stroke-linejoin: miter; stroke-miterlimit: 4; is-custom-font: none; font-file-url: none; fill: rgb(231,242,253); fill-rule: nonzero; opacity: 1;" transform=" translate(-88.0055, -125.8314)" d="M 84.4631 126.841 C 85.6336 127.115 86.7735 127.477 87.8752 127.928 L 87.3244 127.706 C 88.1659 128.054 88.9921 128.453 89.7801 128.897 C 90.6293 129.37 91.8763 129.274 92.5648 128.549 C 93.2534 127.825 93.4675 126.73 92.9244 125.858 C 92.4347 125.082 91.6162 124.498 90.6829 124.35 C 90.2927 124.291 89.9025 124.239 89.5047 124.239 C 89.2752 124.239 89.0533 124.246 88.8238 124.224 L 89.4359 124.305 C 89.2599 124.283 89.0992 124.246 88.9309 124.187 L 89.4817 124.409 C 89.3746 124.365 89.2751 124.313 89.1833 124.246 L 89.65 124.594 C 89.5964 124.549 89.5582 124.512 89.5123 124.461 L 89.8719 124.912 C 89.8336 124.86 89.803 124.808 89.7724 124.749 L 90.002 125.281 C 89.9867 125.237 89.9713 125.2 89.9637 125.156 L 90.0478 125.747 C 90.0478 125.703 90.0478 125.666 90.0478 125.621 L 89.9637 126.213 C 89.9637 126.213 89.979 126.161 89.9867 126.139 L 89.7571 126.671 C 89.7571 126.671 89.7801 126.627 89.7954 126.605 L 89.4359 127.056 C 89.4359 127.056 89.4741 127.019 89.4894 127.004 L 89.0227 127.352 C 89.0686 127.322 89.1145 127.292 89.168 127.27 L 88.6172 127.492 C 88.6708 127.47 88.732 127.462 88.7855 127.448 L 88.1735 127.529 C 88.2424 127.522 88.3189 127.522 88.3878 127.529 L 87.7757 127.448 C 87.8293 127.455 87.8751 127.47 87.921 127.485 L 87.3702 127.263 C 87.3702 127.263 87.4085 127.285 87.4315 127.292 L 86.9647 126.945 C 86.9647 126.945 86.9954 126.967 87.0107 126.989 L 86.6511 126.538 L 86.6664 126.56 L 86.4369 126.028 C 86.4369 126.028 86.4522 126.065 86.4522 126.08 L 86.3681 125.488 V 125.518 C 86.3987 125.318 86.4216 125.126 86.4522 124.926 C 86.4522 124.949 86.4522 124.971 86.4369 124.993 L 86.6664 124.461 C 86.6664 124.461 86.6435 124.512 86.6282 124.535 C 86.0085 125.525 86.368 127.019 87.4544 127.566 C 88.5407 128.113 89.933 127.832 90.591 126.767 C 91.0576 126.021 91.0883 125.03 90.614 124.283 C 90.1932 123.61 89.4817 123.211 88.6937 123.108 C 87.309 122.93 85.9702 123.64 85.5341 124.971 C 85.297 125.681 85.4959 126.487 85.8708 127.115 C 86.2762 127.795 86.9571 128.194 87.6992 128.461 C 88.4413 128.727 89.2675 128.608 90.0631 128.705 L 89.4511 128.623 C 89.6041 128.645 89.7495 128.682 89.8949 128.742 L 89.3441 128.52 C 89.4129 128.549 89.4741 128.586 89.5353 128.623 L 89.0686 128.276 C 89.1298 128.32 89.1757 128.364 89.2216 128.416 L 88.8621 127.965 C 88.8927 128.002 88.9233 128.047 88.9462 128.084 L 92.0828 125.052 C 90.0861 123.936 87.9058 123.078 85.6642 122.546 C 85.0751 122.405 84.4248 122.472 83.8969 122.768 C 83.4226 123.034 82.9637 123.566 82.8413 124.091 C 82.5735 125.237 83.1932 126.523 84.4478 126.819 L 84.4631 126.841 Z" stroke-linecap="round"/>
</g>
</g>
</g>
<g transform="matrix(1.0116 0 0 1.0116 346.5846 454.1154)" id="879119">
<g style="" vector-effect="non-scaling-stroke">
		<g transform="matrix(1 0 0 1 -4.7351 47.0234)">
<path style="stroke: none; stroke-width: 1; stroke-dasharray: none; stroke-linecap: butt; stroke-dashoffset: 0; stroke-linejoin: miter; stroke-miterlimit: 4; is-custom-font: none; font-file-url: none; fill: rgb(81,108,130); fill-rule: nonzero; opacity: 1;" transform=" translate(-38.2649, -103.0234)" d="M 29.2192 110.704 C 48.9864 114.265 70.2543 106.987 69.668 103.014 C 68.7536 96.8355 13.9401 90.9536 7.55343 96.7882 C 3.95875 100.073 14.5892 108.073 29.2192 110.704 Z" stroke-linecap="round"/>
</g>
		<g transform="matrix(1 0 0 1 1.6274 -13.8522)">
<path style="stroke: none; stroke-width: 1; stroke-dasharray: none; stroke-linecap: butt; stroke-dashoffset: 0; stroke-linejoin: miter; stroke-miterlimit: 4; is-custom-font: none; font-file-url: none; fill: rgb(77,101,150); fill-rule: nonzero; opacity: 1;" transform=" translate(-44.6274, -42.1478)" d="M 7.0509 12.5394 L 62.5276 8.96436 L 82.204 63.3381 L 12.1184 75.3312 L 7.0509 12.5394 Z" stroke-linecap="round"/>
</g>
		<g transform="matrix(1 0 0 1 -12.0013 -27.5366)">
<path style="stroke: none; stroke-width: 1; stroke-dasharray: none; stroke-linecap: butt; stroke-dashoffset: 0; stroke-linejoin: miter; stroke-miterlimit: 4; is-custom-font: none; font-file-url: none; fill: rgb(231,242,253); fill-rule: nonzero; opacity: 1;" transform=" translate(-30.9987, -28.4634)" d="M 22.5462 24.2493 C 23.8445 22.9137 25.4429 22.4821 27.4322 22.6102 C 29.0515 22.7181 31.1455 23.5141 32.4438 24.5461 C 36.2339 27.568 37.595 32.5797 38.8653 36.9507 C 39.5912 39.4532 43.6327 38.3874 42.9067 35.8714 C 41.3153 30.4078 39.4098 24.4247 34.4261 20.9441 C 30.1334 17.9425 23.4396 17.4163 19.5867 21.3826 C 17.744 23.278 20.6965 26.1447 22.5462 24.2426 V 24.2493 Z" stroke-linecap="round"/>
</g>
		<g transform="matrix(1 0 0 1 -12.517 -24.3774)">
<path style="stroke: none; stroke-width: 1; stroke-dasharray: none; stroke-linecap: butt; stroke-dashoffset: 0; stroke-linejoin: miter; stroke-miterlimit: 4; is-custom-font: none; font-file-url: none; fill: rgb(231,242,253); fill-rule: nonzero; opacity: 1;" transform=" translate(-30.4831, -31.6226)" d="M 28.9818 31.9723 C 28.9818 31.9723 28.9818 31.9858 28.9818 31.9926 L 28.905 31.4529 C 28.905 31.4529 28.905 31.5136 28.905 31.5474 L 28.9818 31.0078 C 28.9818 31.0078 28.9678 31.0617 28.9608 31.0887 L 29.1702 30.603 C 29.1702 30.603 29.1493 30.6435 29.1283 30.6637 L 29.4564 30.2523 C 29.4564 30.2523 29.4146 30.2928 29.3936 30.313 L 29.8194 29.996 C 29.8194 29.996 29.7565 30.0364 29.7147 30.0499 L 30.2172 29.8476 C 30.1613 29.8678 30.1055 29.8813 30.0497 29.888 L 30.6081 29.8138 C 30.5383 29.8206 30.4614 29.8206 30.3916 29.8138 L 30.95 29.888 C 30.8872 29.8813 30.8244 29.8611 30.7616 29.8408 L 31.2641 30.0432 C 31.2222 30.0297 31.1873 30.0095 31.1524 29.9825 L 31.5782 30.2995 C 31.5782 30.2995 31.5293 30.259 31.5084 30.232 L 31.8365 30.6435 C 31.8365 30.6435 31.8085 30.603 31.7945 30.5828 L 32.004 31.0685 C 32.004 31.0685 31.983 31.0145 31.983 30.9875 L 32.0598 31.5271 C 32.0598 31.5271 32.0598 31.4732 32.0598 31.4462 L 31.983 31.9858 C 31.983 31.9858 31.983 31.9521 31.99 31.9386 C 32.0807 31.6688 32.0877 31.399 32.0248 31.1292 C 32.0109 30.8594 31.9271 30.6098 31.7736 30.3737 C 31.641 30.1376 31.4595 29.9487 31.2361 29.8071 C 31.0337 29.625 30.7965 29.5103 30.5243 29.4429 L 29.9659 29.3687 C 29.589 29.3687 29.233 29.4631 28.912 29.6452 L 28.4862 29.9622 C 28.228 30.2118 28.0465 30.5153 27.9488 30.8526 C 27.9488 30.8661 27.9488 30.8863 27.9418 30.8998 C 27.9209 31.0212 27.879 31.3248 27.8651 31.4462 C 27.8651 31.4529 27.8651 31.4597 27.8651 31.4664 C 27.8581 31.6688 27.9069 31.8779 27.9488 32.0803 C 27.9837 32.2624 28.1512 32.5659 28.1791 32.6266 C 28.2629 32.7953 28.4793 33.0246 28.5421 33.0988 C 28.556 33.119 28.57 33.1325 28.591 33.146 C 28.591 33.146 28.6049 33.1528 28.6049 33.1595 C 28.7026 33.2404 28.9259 33.4023 29.0376 33.4833 C 29.0516 33.49 29.0655 33.5035 29.0795 33.5103 C 29.2749 33.6317 29.5053 33.7126 29.7286 33.7733 C 29.7565 33.7801 29.7845 33.7868 29.8124 33.7936 C 30.0218 33.8273 30.2381 33.861 30.4544 33.8745 C 30.6848 33.888 30.9989 33.8273 31.1803 33.7936 C 31.4037 33.7598 31.662 33.6249 31.8365 33.5507 C 31.8644 33.5372 31.8853 33.5305 31.9062 33.517 C 32.0738 33.4091 32.2412 33.2944 32.3878 33.1595 C 32.7089 32.8695 32.8694 32.5322 33.009 32.141 C 33.0788 31.9454 33.0858 31.716 33.0997 31.5271 C 33.1137 31.318 33.0509 31.0954 33.023 30.8931 C 32.9601 30.63 32.8345 30.4007 32.646 30.2051 C 32.4995 29.9825 32.3041 29.8138 32.0598 29.6857 C 31.8225 29.5373 31.5572 29.4563 31.2781 29.4429 C 30.9989 29.3821 30.7197 29.3956 30.4406 29.4766 L 29.938 29.6789 C 29.6239 29.8611 29.3726 30.1039 29.1842 30.4074 L 28.9748 30.8931 C 28.8771 31.2506 28.8771 31.6081 28.9748 31.9723 H 28.9818 Z" stroke-linecap="round"/>
</g>
		<g transform="matrix(1 0 0 1 10.096 -29.7176)">
<path style="stroke: none; stroke-width: 1; stroke-dasharray: none; stroke-linecap: butt; stroke-dashoffset: 0; stroke-linejoin: miter; stroke-miterlimit: 4; is-custom-font: none; font-file-url: none; fill: rgb(231,242,253); fill-rule: nonzero; opacity: 1;" transform=" translate(-53.0959, -26.2824)" d="M 42.5579 20.7075 C 50.9478 20.9031 58.9748 26.6771 61.5015 34.4949 C 62.3042 36.9704 66.3455 35.9181 65.5428 33.4156 C 62.4507 23.8643 52.9231 16.9032 42.5649 16.6603 C 39.8706 16.5996 39.8706 20.6468 42.5649 20.7075 H 42.5579 Z" stroke-linecap="round"/>
</g>
		<g transform="matrix(1 0 0 1 7.3788 -26.2469)">
<path style="stroke: none; stroke-width: 1; stroke-dasharray: none; stroke-linecap: butt; stroke-dashoffset: 0; stroke-linejoin: miter; stroke-miterlimit: 4; is-custom-font: none; font-file-url: none; fill: rgb(231,242,253); fill-rule: nonzero; opacity: 1;" transform=" translate(-50.3787, -29.7531)" d="M 51.3035 31.028 C 51.136 31.0954 50.9685 31.1629 50.801 31.2303 C 50.8359 31.2168 50.8778 31.2033 50.9127 31.1966 L 50.3543 31.2708 C 50.3543 31.2708 50.4032 31.2708 50.4241 31.2708 L 49.8657 31.1966 C 49.8657 31.1966 49.9006 31.2033 49.9215 31.2101 L 49.419 31.0077 C 49.419 31.0077 49.454 31.0212 49.4679 31.0347 L 49.0421 30.7177 C 49.0421 30.7177 49.0771 30.7447 49.091 30.7649 L 48.763 30.3534 C 48.763 30.3534 48.7979 30.4007 48.8048 30.4276 L 48.5955 29.942 C 48.6164 29.9892 48.6304 30.0364 48.6373 30.0836 L 48.5606 29.544 C 48.5675 29.625 48.5675 29.6992 48.5606 29.7801 L 48.6373 29.2405 C 48.6234 29.3214 48.6025 29.3956 48.5745 29.4698 L 48.7839 28.9842 C 48.7629 29.0314 48.742 29.0786 48.7071 29.1191 L 49.0351 28.7076 C 49.0351 28.7076 48.9933 28.7548 48.9723 28.7751 L 49.3981 28.458 C 49.3981 28.458 49.3632 28.485 49.3423 28.4917 L 49.8448 28.2894 C 49.8448 28.2894 49.8099 28.3029 49.789 28.3029 L 50.3473 28.2287 C 50.3473 28.2287 50.3054 28.2287 50.2915 28.2287 L 50.8499 28.3029 C 50.8499 28.3029 50.801 28.2961 50.78 28.2826 L 51.2826 28.485 C 51.2826 28.485 51.2198 28.4513 51.1919 28.431 L 51.6176 28.7481 C 51.6176 28.7481 51.6036 28.7346 51.5967 28.7278 C 51.4082 28.5322 51.1849 28.3906 50.9197 28.3096 C 50.6684 28.1815 50.4032 28.1275 50.11 28.1342 C 49.8238 28.1208 49.5516 28.1815 49.3004 28.3096 C 49.0421 28.3906 48.8188 28.5322 48.6234 28.7278 L 48.2953 29.1393 C 48.1069 29.4563 48.0092 29.7936 48.0092 30.1578 L 48.0859 30.6975 C 48.1836 31.0415 48.3651 31.3383 48.6234 31.5878 C 48.6303 31.5878 48.6373 31.6013 48.6443 31.6081 C 48.7839 31.716 48.9375 31.8374 49.084 31.9386 C 49.098 31.9453 49.1119 31.9588 49.1259 31.9656 C 49.1328 31.9656 49.1398 31.9723 49.1468 31.9791 C 49.2306 32.0195 49.4469 32.1005 49.4051 32.0802 C 49.3841 32.0735 49.5796 32.1544 49.6633 32.1882 C 49.6773 32.1882 49.6913 32.1949 49.7052 32.2017 C 49.796 32.2219 49.9774 32.2354 49.9983 32.2421 C 50.0053 32.2421 50.1938 32.2759 50.2915 32.2826 C 50.3054 32.2826 50.3194 32.2826 50.3334 32.2826 C 50.4939 32.2759 50.7312 32.2556 50.9197 32.2017 C 50.9197 32.2017 50.9336 32.2017 50.9406 32.2017 C 50.9406 32.2017 50.9406 32.2017 50.9476 32.2017 C 51.0104 32.1814 51.3943 32.0263 51.4501 31.9925 C 51.6246 31.9116 51.8479 31.7092 51.9387 31.6418 C 51.9596 31.6216 51.9806 31.6081 51.9945 31.5878 C 52.0853 31.4799 52.2667 31.2775 52.3644 31.1157 C 52.3714 31.1022 52.3784 31.0887 52.3854 31.0752 C 52.3854 31.0684 52.3854 31.0617 52.3923 31.055 C 52.4691 30.8931 52.5459 30.7177 52.6087 30.5491 C 52.6367 30.4884 52.6506 30.4276 52.6646 30.3602 C 52.6995 30.1511 52.7343 29.942 52.7483 29.7261 C 52.7483 29.6924 52.7483 29.6587 52.7483 29.6317 C 52.7413 29.4226 52.6995 29.2067 52.6646 29.0044 C 52.6646 28.9774 52.6506 28.9504 52.6436 28.9167 C 52.6436 28.9032 52.6366 28.8897 52.6296 28.8762 C 52.5738 28.7413 52.4761 28.512 52.4133 28.3838 C 52.4133 28.3771 52.4133 28.3703 52.4063 28.3636 C 52.4063 28.3501 52.3923 28.3433 52.3854 28.3299 C 52.3365 28.2557 52.2318 28.1342 52.2109 28.114 C 52.176 28.0735 52.0992 27.9656 52.0364 27.8914 C 52.0294 27.8847 52.0154 27.8712 52.0084 27.8644 C 51.9456 27.8105 51.6804 27.6216 51.7921 27.7025 C 51.82 27.7228 51.6455 27.5879 51.5757 27.5407 C 51.5757 27.5407 51.5618 27.5339 51.5548 27.5272 C 51.3734 27.4327 51.1849 27.3383 50.9825 27.2978 C 50.9266 27.2843 50.48 27.2304 50.4241 27.2236 C 50.4241 27.2236 50.4171 27.2236 50.4102 27.2236 C 50.4032 27.2236 50.3962 27.2236 50.3892 27.2236 C 50.1868 27.2236 49.9844 27.2641 49.789 27.2978 C 49.768 27.2978 49.754 27.3046 49.7331 27.3113 C 49.5446 27.3653 49.3493 27.4597 49.1748 27.5339 C 48.9305 27.6621 48.7351 27.8375 48.5885 28.0533 C 48.4001 28.2489 48.2814 28.4783 48.2116 28.7413 C 48.1209 29.0111 48.1138 29.2809 48.1767 29.5508 C 48.1906 29.8206 48.2744 30.0701 48.4279 30.3062 L 48.756 30.7177 C 49.0143 30.9673 49.3283 31.1426 49.6773 31.2371 L 50.2357 31.3113 C 50.6126 31.3113 50.9685 31.2168 51.2896 31.0347 L 51.3035 31.028 Z" stroke-linecap="round"/>
</g>
		<g transform="matrix(1 0 0 1 -6.7485 -51.3678)">
<path style="stroke: none; stroke-width: 1; stroke-dasharray: none; stroke-linecap: butt; stroke-dashoffset: 0; stroke-linejoin: miter; stroke-miterlimit: 4; is-custom-font: none; font-file-url: none; fill: rgb(231,242,253); fill-rule: nonzero; opacity: 1;" transform=" translate(-36.2515, -4.6322)" d="M 12.3137 7.39252 C 24.7241 7.95912 37.1693 7.73652 49.5518 6.71124 C 53.1046 6.41445 56.6504 6.05021 60.1892 5.62526 C 61.313 5.49035 62.2832 4.78884 62.2832 3.60167 C 62.2832 2.61011 61.32 1.44318 60.1892 1.57808 C 47.8626 3.0553 35.4313 3.75681 23.007 3.64214 C 19.4402 3.60841 15.8735 3.50723 12.3137 3.34535 C 11.183 3.29138 10.2197 4.30992 10.2197 5.36893 C 10.2197 6.50888 11.183 7.33855 12.3137 7.39252 Z" stroke-linecap="round"/>
</g>
		<g transform="matrix(1 0 0 1 22.5924 -37.2947)">
<path style="stroke: none; stroke-width: 1; stroke-dasharray: none; stroke-linecap: butt; stroke-dashoffset: 0; stroke-linejoin: miter; stroke-miterlimit: 4; is-custom-font: none; font-file-url: none; fill: rgb(231,242,253); fill-rule: nonzero; opacity: 1;" transform=" translate(-65.5924, -18.7054)" d="M 55.1635 2.90707 C 59.3236 14.6169 65.0402 25.7938 72.2016 36.0669 C 72.8298 36.9707 74.0443 37.3687 75.0634 36.7954 C 75.9917 36.2692 76.4524 34.9404 75.8173 34.0298 C 68.8583 24.0468 63.2463 13.2206 59.205 1.83457 C 58.835 0.802541 57.767 0.121266 56.6293 0.418059 C 55.5893 0.694615 54.8006 1.8683 55.1635 2.90707 Z" stroke-linecap="round"/>
</g>
		<g transform="matrix(1 0 0 1 13.1264 -9.3854)">
<path style="stroke: none; stroke-width: 1; stroke-dasharray: none; stroke-linecap: butt; stroke-dashoffset: 0; stroke-linejoin: miter; stroke-miterlimit: 4; is-custom-font: none; font-file-url: none; fill: rgb(231,242,253); fill-rule: nonzero; opacity: 1;" transform=" translate(-56.1265, -46.6145)" d="M 47.332 48.3773 C 52.8322 51.959 60.9638 50.9472 65.3542 46.1513 C 66.1011 45.3351 66.1918 44.094 65.3542 43.2913 C 64.5934 42.5561 63.1486 42.4684 62.3947 43.2913 C 61.4385 44.3368 60.8173 44.809 59.533 45.4431 C 59.3794 45.5173 59.2189 45.5915 59.0654 45.6657 C 58.7513 45.8073 59.3096 45.578 58.9885 45.6994 C 58.6674 45.8208 58.3325 45.9355 57.9974 46.0299 C 57.6973 46.1176 57.3901 46.1985 57.083 46.2592 C 56.9085 46.293 56.741 46.3267 56.5665 46.3604 C 56.5037 46.3739 56.043 46.4346 56.392 46.3941 C 55.7638 46.4683 55.1356 46.4953 54.5005 46.4751 C 54.1515 46.4616 53.8025 46.4414 53.4535 46.4009 C 53.6838 46.4279 53.5233 46.4144 53.3907 46.3874 C 53.2162 46.3537 53.0486 46.3267 52.8741 46.293 C 52.2319 46.1581 51.5898 45.9759 50.9755 45.7331 C 51.2408 45.841 50.9058 45.6926 50.808 45.6522 C 50.6545 45.578 50.494 45.5038 50.3404 45.4228 C 50.0333 45.2609 49.7332 45.0788 49.447 44.8899 C 48.5117 44.2761 47.1297 44.7146 46.5852 45.6184 C 45.9849 46.6167 46.3967 47.7769 47.339 48.384 L 47.332 48.3773 Z" stroke-linecap="round"/>
</g>
		<g transform="matrix(1 0 0 1 -27.3084 -18.5539)">
<path style="stroke: none; stroke-width: 1; stroke-dasharray: none; stroke-linecap: butt; stroke-dashoffset: 0; stroke-linejoin: miter; stroke-miterlimit: 4; is-custom-font: none; font-file-url: none; fill: rgb(231,242,253); fill-rule: nonzero; opacity: 1;" transform=" translate(-15.6915, -37.4462)" d="M 8.11173 9.99625 C 11.0082 24.5661 13.8978 39.1426 16.7943 53.7124 C 17.6039 57.8001 18.4136 61.881 19.2302 65.9686 C 19.4465 67.0411 20.7796 67.6549 21.8056 67.3851 C 22.9712 67.0748 23.4807 65.9754 23.2714 64.8961 C 20.3748 50.3263 17.4853 35.7497 14.5888 21.1799 C 13.7792 17.0923 12.9695 13.0114 12.1529 8.92375 C 11.9365 7.85125 10.6034 7.23743 9.57742 7.50724 C 8.41184 7.81752 7.90235 8.917 8.11173 9.99625 Z" stroke-linecap="round"/>
</g>
		<g transform="matrix(1 0 0 1 0.8956 14.7143)">
<path style="stroke: none; stroke-width: 1; stroke-dasharray: none; stroke-linecap: butt; stroke-dashoffset: 0; stroke-linejoin: miter; stroke-miterlimit: 4; is-custom-font: none; font-file-url: none; fill: rgb(231,242,253); fill-rule: nonzero; opacity: 1;" transform=" translate(-43.8956, -70.7143)" d="M 23.677 69.9959 C 37.1483 70.1443 50.5359 71.9656 63.5325 75.4057 C 66.1361 76.0937 67.2459 72.1949 64.6494 71.5001 C 51.3177 67.9656 37.5113 66.0972 23.684 65.942 C 20.9898 65.915 20.9898 69.9622 23.684 69.9892 L 23.677 69.9959 Z" stroke-linecap="round"/>
</g>
		<g transform="matrix(1 0 0 1 -4.7977 30.1009)">
<path style="stroke: none; stroke-width: 1; stroke-dasharray: none; stroke-linecap: butt; stroke-dashoffset: 0; stroke-linejoin: miter; stroke-miterlimit: 4; is-custom-font: none; font-file-url: none; fill: rgb(231,242,253); fill-rule: nonzero; opacity: 1;" transform=" translate(-38.2023, -86.101)" d="M 37.6576 68.4711 C 34.7332 79.7829 33.9096 91.5737 35.2985 103.155 C 35.4312 104.241 36.164 105.179 37.3924 105.179 C 38.4254 105.179 39.6189 104.248 39.4863 103.155 C 38.1322 91.9177 38.8581 80.5249 41.6918 69.5436 C 42.3479 67.0141 38.3067 65.9348 37.6507 68.4643 L 37.6576 68.4711 Z" stroke-linecap="round"/>
</g>
		<g transform="matrix(1 0 0 1 8.7295 30.1344)">
<path style="stroke: none; stroke-width: 1; stroke-dasharray: none; stroke-linecap: butt; stroke-dashoffset: 0; stroke-linejoin: miter; stroke-miterlimit: 4; is-custom-font: none; font-file-url: none; fill: rgb(231,242,253); fill-rule: nonzero; opacity: 1;" transform=" translate(-51.7295, -86.1344)" d="M 50.7382 71.0144 C 48.6443 80.7748 48.086 90.805 49.1888 100.714 C 49.3074 101.8 50.0682 102.737 51.2826 102.737 C 52.3226 102.737 53.4952 101.807 53.3765 100.714 C 52.3156 91.1625 52.7553 81.4965 54.7724 72.0869 C 55.0027 71.0211 54.4514 69.9014 53.3067 69.5979 C 52.2668 69.3213 50.9615 69.9351 50.7312 71.0144 H 50.7382 Z" stroke-linecap="round"/>
</g>
		<g transform="matrix(1 0 0 1 35.9244 -40.4022)">
<path style="stroke: none; stroke-width: 1; stroke-dasharray: none; stroke-linecap: butt; stroke-dashoffset: 0; stroke-linejoin: miter; stroke-miterlimit: 4; is-custom-font: none; font-file-url: none; fill: rgb(231,242,253); fill-rule: nonzero; opacity: 1;" transform=" translate(-78.9245, -15.5978)" d="M 74.449 27.0212 C 75.8659 18.8392 80.256 11.4396 86.8657 6.13783 C 87.7381 5.43632 87.6125 3.99958 86.8657 3.27783 C 86.0072 2.44816 84.7788 2.57632 83.9064 3.27783 C 76.8221 8.95736 71.9294 17.1731 70.4148 25.942 C 70.2264 27.0212 70.708 28.1207 71.8806 28.431 C 72.8856 28.6941 74.2676 28.1005 74.456 27.0145 L 74.449 27.0212 Z" stroke-linecap="round"/>
</g>
		<g transform="matrix(1 0 0 1 -34.637 6.2771)">
<path style="stroke: none; stroke-width: 1; stroke-dasharray: none; stroke-linecap: butt; stroke-dashoffset: 0; stroke-linejoin: miter; stroke-miterlimit: 4; is-custom-font: none; font-file-url: none; fill: rgb(231,242,253); fill-rule: nonzero; opacity: 1;" transform=" translate(-8.363, -62.2771)" d="M 12.5569 37.389 C 5.61926 48.8358 1.50133 61.78 0.482313 75.0075 C 0.196151 78.7039 0.168229 82.407 0.391575 86.1102 C 0.454391 87.2029 1.3059 88.1338 2.48544 88.1338 C 3.56727 88.1338 4.64213 87.2097 4.57931 86.1102 C 3.82552 73.4493 6.08688 60.6737 11.1959 48.9841 C 12.6337 45.6992 14.3158 42.5154 16.1793 39.4396 C 17.5473 37.1866 13.9249 35.1496 12.5639 37.3958 L 12.5569 37.389 Z" stroke-linecap="round"/>
</g>
</g>
</g>
</svg>